<mxfile host="app.diagrams.net" modified="2024-06-12T12:07:54.288Z" agent="Mozilla/5.0 (Windows NT 10.0; Win64; x64) AppleWebKit/537.36 (KHTML, like Gecko) Chrome/122.0.0.0 YaBrowser/24.4.0.0 Safari/537.36" etag="M0H1XAYKwbkKypA4mvzk" version="24.5.3" type="google" pages="3">
  <diagram name="Логическая модель" id="P28Zc1ymq7K_IPB4-IHg">
    <mxGraphModel dx="1386" dy="759" grid="1" gridSize="10" guides="1" tooltips="1" connect="1" arrows="1" fold="1" page="1" pageScale="1" pageWidth="827" pageHeight="1169" math="0" shadow="0">
      <root>
        <mxCell id="0" />
        <mxCell id="1" parent="0" />
        <mxCell id="suRE0B9pLVc1ZfChcI6G-1" value="users" style="shape=table;startSize=30;container=1;collapsible=1;childLayout=tableLayout;fixedRows=1;rowLines=0;fontStyle=1;align=center;resizeLast=1;html=1;" vertex="1" parent="1">
          <mxGeometry x="280" y="585" width="170" height="270" as="geometry" />
        </mxCell>
        <mxCell id="suRE0B9pLVc1ZfChcI6G-2" value="" style="shape=tableRow;horizontal=0;startSize=0;swimlaneHead=0;swimlaneBody=0;fillColor=none;collapsible=0;dropTarget=0;points=[[0,0.5],[1,0.5]];portConstraint=eastwest;top=0;left=0;right=0;bottom=1;" vertex="1" parent="suRE0B9pLVc1ZfChcI6G-1">
          <mxGeometry y="30" width="170" height="30" as="geometry" />
        </mxCell>
        <mxCell id="suRE0B9pLVc1ZfChcI6G-3" value="PK" style="shape=partialRectangle;connectable=0;fillColor=none;top=0;left=0;bottom=0;right=0;fontStyle=1;overflow=hidden;whiteSpace=wrap;html=1;" vertex="1" parent="suRE0B9pLVc1ZfChcI6G-2">
          <mxGeometry width="30" height="30" as="geometry">
            <mxRectangle width="30" height="30" as="alternateBounds" />
          </mxGeometry>
        </mxCell>
        <mxCell id="suRE0B9pLVc1ZfChcI6G-4" value="UniqueID" style="shape=partialRectangle;connectable=0;fillColor=none;top=0;left=0;bottom=0;right=0;align=left;spacingLeft=6;fontStyle=5;overflow=hidden;whiteSpace=wrap;html=1;" vertex="1" parent="suRE0B9pLVc1ZfChcI6G-2">
          <mxGeometry x="30" width="140" height="30" as="geometry">
            <mxRectangle width="140" height="30" as="alternateBounds" />
          </mxGeometry>
        </mxCell>
        <mxCell id="suRE0B9pLVc1ZfChcI6G-5" value="" style="shape=tableRow;horizontal=0;startSize=0;swimlaneHead=0;swimlaneBody=0;fillColor=none;collapsible=0;dropTarget=0;points=[[0,0.5],[1,0.5]];portConstraint=eastwest;top=0;left=0;right=0;bottom=0;" vertex="1" parent="suRE0B9pLVc1ZfChcI6G-1">
          <mxGeometry y="60" width="170" height="30" as="geometry" />
        </mxCell>
        <mxCell id="suRE0B9pLVc1ZfChcI6G-6" value="" style="shape=partialRectangle;connectable=0;fillColor=none;top=0;left=0;bottom=0;right=0;editable=1;overflow=hidden;whiteSpace=wrap;html=1;" vertex="1" parent="suRE0B9pLVc1ZfChcI6G-5">
          <mxGeometry width="30" height="30" as="geometry">
            <mxRectangle width="30" height="30" as="alternateBounds" />
          </mxGeometry>
        </mxCell>
        <mxCell id="suRE0B9pLVc1ZfChcI6G-7" value="name" style="shape=partialRectangle;connectable=0;fillColor=none;top=0;left=0;bottom=0;right=0;align=left;spacingLeft=6;overflow=hidden;whiteSpace=wrap;html=1;" vertex="1" parent="suRE0B9pLVc1ZfChcI6G-5">
          <mxGeometry x="30" width="140" height="30" as="geometry">
            <mxRectangle width="140" height="30" as="alternateBounds" />
          </mxGeometry>
        </mxCell>
        <mxCell id="suRE0B9pLVc1ZfChcI6G-8" value="" style="shape=tableRow;horizontal=0;startSize=0;swimlaneHead=0;swimlaneBody=0;fillColor=none;collapsible=0;dropTarget=0;points=[[0,0.5],[1,0.5]];portConstraint=eastwest;top=0;left=0;right=0;bottom=0;" vertex="1" parent="suRE0B9pLVc1ZfChcI6G-1">
          <mxGeometry y="90" width="170" height="30" as="geometry" />
        </mxCell>
        <mxCell id="suRE0B9pLVc1ZfChcI6G-9" value="" style="shape=partialRectangle;connectable=0;fillColor=none;top=0;left=0;bottom=0;right=0;editable=1;overflow=hidden;whiteSpace=wrap;html=1;" vertex="1" parent="suRE0B9pLVc1ZfChcI6G-8">
          <mxGeometry width="30" height="30" as="geometry">
            <mxRectangle width="30" height="30" as="alternateBounds" />
          </mxGeometry>
        </mxCell>
        <mxCell id="suRE0B9pLVc1ZfChcI6G-10" value="phone_number" style="shape=partialRectangle;connectable=0;fillColor=none;top=0;left=0;bottom=0;right=0;align=left;spacingLeft=6;overflow=hidden;whiteSpace=wrap;html=1;" vertex="1" parent="suRE0B9pLVc1ZfChcI6G-8">
          <mxGeometry x="30" width="140" height="30" as="geometry">
            <mxRectangle width="140" height="30" as="alternateBounds" />
          </mxGeometry>
        </mxCell>
        <mxCell id="suRE0B9pLVc1ZfChcI6G-11" value="" style="shape=tableRow;horizontal=0;startSize=0;swimlaneHead=0;swimlaneBody=0;fillColor=none;collapsible=0;dropTarget=0;points=[[0,0.5],[1,0.5]];portConstraint=eastwest;top=0;left=0;right=0;bottom=0;" vertex="1" parent="suRE0B9pLVc1ZfChcI6G-1">
          <mxGeometry y="120" width="170" height="30" as="geometry" />
        </mxCell>
        <mxCell id="suRE0B9pLVc1ZfChcI6G-12" value="" style="shape=partialRectangle;connectable=0;fillColor=none;top=0;left=0;bottom=0;right=0;editable=1;overflow=hidden;whiteSpace=wrap;html=1;" vertex="1" parent="suRE0B9pLVc1ZfChcI6G-11">
          <mxGeometry width="30" height="30" as="geometry">
            <mxRectangle width="30" height="30" as="alternateBounds" />
          </mxGeometry>
        </mxCell>
        <mxCell id="suRE0B9pLVc1ZfChcI6G-13" value="login" style="shape=partialRectangle;connectable=0;fillColor=none;top=0;left=0;bottom=0;right=0;align=left;spacingLeft=6;overflow=hidden;whiteSpace=wrap;html=1;" vertex="1" parent="suRE0B9pLVc1ZfChcI6G-11">
          <mxGeometry x="30" width="140" height="30" as="geometry">
            <mxRectangle width="140" height="30" as="alternateBounds" />
          </mxGeometry>
        </mxCell>
        <mxCell id="suRE0B9pLVc1ZfChcI6G-14" style="shape=tableRow;horizontal=0;startSize=0;swimlaneHead=0;swimlaneBody=0;fillColor=none;collapsible=0;dropTarget=0;points=[[0,0.5],[1,0.5]];portConstraint=eastwest;top=0;left=0;right=0;bottom=0;" vertex="1" parent="suRE0B9pLVc1ZfChcI6G-1">
          <mxGeometry y="150" width="170" height="30" as="geometry" />
        </mxCell>
        <mxCell id="suRE0B9pLVc1ZfChcI6G-15" style="shape=partialRectangle;connectable=0;fillColor=none;top=0;left=0;bottom=0;right=0;editable=1;overflow=hidden;whiteSpace=wrap;html=1;" vertex="1" parent="suRE0B9pLVc1ZfChcI6G-14">
          <mxGeometry width="30" height="30" as="geometry">
            <mxRectangle width="30" height="30" as="alternateBounds" />
          </mxGeometry>
        </mxCell>
        <mxCell id="suRE0B9pLVc1ZfChcI6G-16" value="password" style="shape=partialRectangle;connectable=0;fillColor=none;top=0;left=0;bottom=0;right=0;align=left;spacingLeft=6;overflow=hidden;whiteSpace=wrap;html=1;" vertex="1" parent="suRE0B9pLVc1ZfChcI6G-14">
          <mxGeometry x="30" width="140" height="30" as="geometry">
            <mxRectangle width="140" height="30" as="alternateBounds" />
          </mxGeometry>
        </mxCell>
        <mxCell id="suRE0B9pLVc1ZfChcI6G-17" style="shape=tableRow;horizontal=0;startSize=0;swimlaneHead=0;swimlaneBody=0;fillColor=none;collapsible=0;dropTarget=0;points=[[0,0.5],[1,0.5]];portConstraint=eastwest;top=0;left=0;right=0;bottom=0;" vertex="1" parent="suRE0B9pLVc1ZfChcI6G-1">
          <mxGeometry y="180" width="170" height="30" as="geometry" />
        </mxCell>
        <mxCell id="suRE0B9pLVc1ZfChcI6G-18" style="shape=partialRectangle;connectable=0;fillColor=none;top=0;left=0;bottom=0;right=0;editable=1;overflow=hidden;whiteSpace=wrap;html=1;" vertex="1" parent="suRE0B9pLVc1ZfChcI6G-17">
          <mxGeometry width="30" height="30" as="geometry">
            <mxRectangle width="30" height="30" as="alternateBounds" />
          </mxGeometry>
        </mxCell>
        <mxCell id="suRE0B9pLVc1ZfChcI6G-19" value="surname" style="shape=partialRectangle;connectable=0;fillColor=none;top=0;left=0;bottom=0;right=0;align=left;spacingLeft=6;overflow=hidden;whiteSpace=wrap;html=1;" vertex="1" parent="suRE0B9pLVc1ZfChcI6G-17">
          <mxGeometry x="30" width="140" height="30" as="geometry">
            <mxRectangle width="140" height="30" as="alternateBounds" />
          </mxGeometry>
        </mxCell>
        <mxCell id="suRE0B9pLVc1ZfChcI6G-104" style="shape=tableRow;horizontal=0;startSize=0;swimlaneHead=0;swimlaneBody=0;fillColor=none;collapsible=0;dropTarget=0;points=[[0,0.5],[1,0.5]];portConstraint=eastwest;top=0;left=0;right=0;bottom=0;" vertex="1" parent="suRE0B9pLVc1ZfChcI6G-1">
          <mxGeometry y="210" width="170" height="30" as="geometry" />
        </mxCell>
        <mxCell id="suRE0B9pLVc1ZfChcI6G-105" style="shape=partialRectangle;connectable=0;fillColor=none;top=0;left=0;bottom=0;right=0;editable=1;overflow=hidden;whiteSpace=wrap;html=1;" vertex="1" parent="suRE0B9pLVc1ZfChcI6G-104">
          <mxGeometry width="30" height="30" as="geometry">
            <mxRectangle width="30" height="30" as="alternateBounds" />
          </mxGeometry>
        </mxCell>
        <mxCell id="suRE0B9pLVc1ZfChcI6G-106" value="patronymic" style="shape=partialRectangle;connectable=0;fillColor=none;top=0;left=0;bottom=0;right=0;align=left;spacingLeft=6;overflow=hidden;whiteSpace=wrap;html=1;" vertex="1" parent="suRE0B9pLVc1ZfChcI6G-104">
          <mxGeometry x="30" width="140" height="30" as="geometry">
            <mxRectangle width="140" height="30" as="alternateBounds" />
          </mxGeometry>
        </mxCell>
        <mxCell id="suRE0B9pLVc1ZfChcI6G-20" style="shape=tableRow;horizontal=0;startSize=0;swimlaneHead=0;swimlaneBody=0;fillColor=none;collapsible=0;dropTarget=0;points=[[0,0.5],[1,0.5]];portConstraint=eastwest;top=0;left=0;right=0;bottom=0;" vertex="1" parent="suRE0B9pLVc1ZfChcI6G-1">
          <mxGeometry y="240" width="170" height="30" as="geometry" />
        </mxCell>
        <mxCell id="suRE0B9pLVc1ZfChcI6G-21" value="FK" style="shape=partialRectangle;connectable=0;fillColor=none;top=0;left=0;bottom=0;right=0;editable=1;overflow=hidden;whiteSpace=wrap;html=1;" vertex="1" parent="suRE0B9pLVc1ZfChcI6G-20">
          <mxGeometry width="30" height="30" as="geometry">
            <mxRectangle width="30" height="30" as="alternateBounds" />
          </mxGeometry>
        </mxCell>
        <mxCell id="suRE0B9pLVc1ZfChcI6G-22" value="role_id" style="shape=partialRectangle;connectable=0;fillColor=none;top=0;left=0;bottom=0;right=0;align=left;spacingLeft=6;overflow=hidden;whiteSpace=wrap;html=1;" vertex="1" parent="suRE0B9pLVc1ZfChcI6G-20">
          <mxGeometry x="30" width="140" height="30" as="geometry">
            <mxRectangle width="140" height="30" as="alternateBounds" />
          </mxGeometry>
        </mxCell>
        <mxCell id="suRE0B9pLVc1ZfChcI6G-23" value="roles" style="shape=table;startSize=30;container=1;collapsible=1;childLayout=tableLayout;fixedRows=1;rowLines=0;fontStyle=1;align=center;resizeLast=1;html=1;" vertex="1" parent="1">
          <mxGeometry x="280" y="910" width="160" height="120" as="geometry" />
        </mxCell>
        <mxCell id="suRE0B9pLVc1ZfChcI6G-24" value="" style="shape=tableRow;horizontal=0;startSize=0;swimlaneHead=0;swimlaneBody=0;fillColor=none;collapsible=0;dropTarget=0;points=[[0,0.5],[1,0.5]];portConstraint=eastwest;top=0;left=0;right=0;bottom=1;" vertex="1" parent="suRE0B9pLVc1ZfChcI6G-23">
          <mxGeometry y="30" width="160" height="30" as="geometry" />
        </mxCell>
        <mxCell id="suRE0B9pLVc1ZfChcI6G-25" value="PK" style="shape=partialRectangle;connectable=0;fillColor=none;top=0;left=0;bottom=0;right=0;fontStyle=1;overflow=hidden;whiteSpace=wrap;html=1;" vertex="1" parent="suRE0B9pLVc1ZfChcI6G-24">
          <mxGeometry width="30" height="30" as="geometry">
            <mxRectangle width="30" height="30" as="alternateBounds" />
          </mxGeometry>
        </mxCell>
        <mxCell id="suRE0B9pLVc1ZfChcI6G-26" value="UniqueID" style="shape=partialRectangle;connectable=0;fillColor=none;top=0;left=0;bottom=0;right=0;align=left;spacingLeft=6;fontStyle=5;overflow=hidden;whiteSpace=wrap;html=1;" vertex="1" parent="suRE0B9pLVc1ZfChcI6G-24">
          <mxGeometry x="30" width="130" height="30" as="geometry">
            <mxRectangle width="130" height="30" as="alternateBounds" />
          </mxGeometry>
        </mxCell>
        <mxCell id="suRE0B9pLVc1ZfChcI6G-27" value="" style="shape=tableRow;horizontal=0;startSize=0;swimlaneHead=0;swimlaneBody=0;fillColor=none;collapsible=0;dropTarget=0;points=[[0,0.5],[1,0.5]];portConstraint=eastwest;top=0;left=0;right=0;bottom=0;" vertex="1" parent="suRE0B9pLVc1ZfChcI6G-23">
          <mxGeometry y="60" width="160" height="30" as="geometry" />
        </mxCell>
        <mxCell id="suRE0B9pLVc1ZfChcI6G-28" value="" style="shape=partialRectangle;connectable=0;fillColor=none;top=0;left=0;bottom=0;right=0;editable=1;overflow=hidden;whiteSpace=wrap;html=1;" vertex="1" parent="suRE0B9pLVc1ZfChcI6G-27">
          <mxGeometry width="30" height="30" as="geometry">
            <mxRectangle width="30" height="30" as="alternateBounds" />
          </mxGeometry>
        </mxCell>
        <mxCell id="suRE0B9pLVc1ZfChcI6G-29" value="name" style="shape=partialRectangle;connectable=0;fillColor=none;top=0;left=0;bottom=0;right=0;align=left;spacingLeft=6;overflow=hidden;whiteSpace=wrap;html=1;" vertex="1" parent="suRE0B9pLVc1ZfChcI6G-27">
          <mxGeometry x="30" width="130" height="30" as="geometry">
            <mxRectangle width="130" height="30" as="alternateBounds" />
          </mxGeometry>
        </mxCell>
        <mxCell id="suRE0B9pLVc1ZfChcI6G-30" value="" style="shape=tableRow;horizontal=0;startSize=0;swimlaneHead=0;swimlaneBody=0;fillColor=none;collapsible=0;dropTarget=0;points=[[0,0.5],[1,0.5]];portConstraint=eastwest;top=0;left=0;right=0;bottom=0;" vertex="1" parent="suRE0B9pLVc1ZfChcI6G-23">
          <mxGeometry y="90" width="160" height="30" as="geometry" />
        </mxCell>
        <mxCell id="suRE0B9pLVc1ZfChcI6G-31" value="" style="shape=partialRectangle;connectable=0;fillColor=none;top=0;left=0;bottom=0;right=0;editable=1;overflow=hidden;whiteSpace=wrap;html=1;" vertex="1" parent="suRE0B9pLVc1ZfChcI6G-30">
          <mxGeometry width="30" height="30" as="geometry">
            <mxRectangle width="30" height="30" as="alternateBounds" />
          </mxGeometry>
        </mxCell>
        <mxCell id="suRE0B9pLVc1ZfChcI6G-32" value="code" style="shape=partialRectangle;connectable=0;fillColor=none;top=0;left=0;bottom=0;right=0;align=left;spacingLeft=6;overflow=hidden;whiteSpace=wrap;html=1;" vertex="1" parent="suRE0B9pLVc1ZfChcI6G-30">
          <mxGeometry x="30" width="130" height="30" as="geometry">
            <mxRectangle width="130" height="30" as="alternateBounds" />
          </mxGeometry>
        </mxCell>
        <mxCell id="suRE0B9pLVc1ZfChcI6G-33" value="products" style="shape=table;startSize=30;container=1;collapsible=1;childLayout=tableLayout;fixedRows=1;rowLines=0;fontStyle=1;align=center;resizeLast=1;html=1;" vertex="1" parent="1">
          <mxGeometry x="560" y="600" width="160" height="200" as="geometry" />
        </mxCell>
        <mxCell id="suRE0B9pLVc1ZfChcI6G-34" value="" style="shape=tableRow;horizontal=0;startSize=0;swimlaneHead=0;swimlaneBody=0;fillColor=none;collapsible=0;dropTarget=0;points=[[0,0.5],[1,0.5]];portConstraint=eastwest;top=0;left=0;right=0;bottom=1;" vertex="1" parent="suRE0B9pLVc1ZfChcI6G-33">
          <mxGeometry y="30" width="160" height="30" as="geometry" />
        </mxCell>
        <mxCell id="suRE0B9pLVc1ZfChcI6G-35" value="PK" style="shape=partialRectangle;connectable=0;fillColor=none;top=0;left=0;bottom=0;right=0;fontStyle=1;overflow=hidden;whiteSpace=wrap;html=1;" vertex="1" parent="suRE0B9pLVc1ZfChcI6G-34">
          <mxGeometry width="30" height="30" as="geometry">
            <mxRectangle width="30" height="30" as="alternateBounds" />
          </mxGeometry>
        </mxCell>
        <mxCell id="suRE0B9pLVc1ZfChcI6G-36" value="UniqueID" style="shape=partialRectangle;connectable=0;fillColor=none;top=0;left=0;bottom=0;right=0;align=left;spacingLeft=6;fontStyle=5;overflow=hidden;whiteSpace=wrap;html=1;" vertex="1" parent="suRE0B9pLVc1ZfChcI6G-34">
          <mxGeometry x="30" width="130" height="30" as="geometry">
            <mxRectangle width="130" height="30" as="alternateBounds" />
          </mxGeometry>
        </mxCell>
        <mxCell id="suRE0B9pLVc1ZfChcI6G-40" value="" style="shape=tableRow;horizontal=0;startSize=0;swimlaneHead=0;swimlaneBody=0;fillColor=none;collapsible=0;dropTarget=0;points=[[0,0.5],[1,0.5]];portConstraint=eastwest;top=0;left=0;right=0;bottom=0;" vertex="1" parent="suRE0B9pLVc1ZfChcI6G-33">
          <mxGeometry y="60" width="160" height="30" as="geometry" />
        </mxCell>
        <mxCell id="suRE0B9pLVc1ZfChcI6G-41" value="" style="shape=partialRectangle;connectable=0;fillColor=none;top=0;left=0;bottom=0;right=0;editable=1;overflow=hidden;whiteSpace=wrap;html=1;" vertex="1" parent="suRE0B9pLVc1ZfChcI6G-40">
          <mxGeometry width="30" height="30" as="geometry">
            <mxRectangle width="30" height="30" as="alternateBounds" />
          </mxGeometry>
        </mxCell>
        <mxCell id="suRE0B9pLVc1ZfChcI6G-42" value="name" style="shape=partialRectangle;connectable=0;fillColor=none;top=0;left=0;bottom=0;right=0;align=left;spacingLeft=6;overflow=hidden;whiteSpace=wrap;html=1;" vertex="1" parent="suRE0B9pLVc1ZfChcI6G-40">
          <mxGeometry x="30" width="130" height="30" as="geometry">
            <mxRectangle width="130" height="30" as="alternateBounds" />
          </mxGeometry>
        </mxCell>
        <mxCell id="suRE0B9pLVc1ZfChcI6G-43" value="" style="shape=tableRow;horizontal=0;startSize=0;swimlaneHead=0;swimlaneBody=0;fillColor=none;collapsible=0;dropTarget=0;points=[[0,0.5],[1,0.5]];portConstraint=eastwest;top=0;left=0;right=0;bottom=0;" vertex="1" parent="suRE0B9pLVc1ZfChcI6G-33">
          <mxGeometry y="90" width="160" height="30" as="geometry" />
        </mxCell>
        <mxCell id="suRE0B9pLVc1ZfChcI6G-44" value="" style="shape=partialRectangle;connectable=0;fillColor=none;top=0;left=0;bottom=0;right=0;editable=1;overflow=hidden;whiteSpace=wrap;html=1;" vertex="1" parent="suRE0B9pLVc1ZfChcI6G-43">
          <mxGeometry width="30" height="30" as="geometry">
            <mxRectangle width="30" height="30" as="alternateBounds" />
          </mxGeometry>
        </mxCell>
        <mxCell id="suRE0B9pLVc1ZfChcI6G-45" value="description" style="shape=partialRectangle;connectable=0;fillColor=none;top=0;left=0;bottom=0;right=0;align=left;spacingLeft=6;overflow=hidden;whiteSpace=wrap;html=1;" vertex="1" parent="suRE0B9pLVc1ZfChcI6G-43">
          <mxGeometry x="30" width="130" height="30" as="geometry">
            <mxRectangle width="130" height="30" as="alternateBounds" />
          </mxGeometry>
        </mxCell>
        <mxCell id="suRE0B9pLVc1ZfChcI6G-46" style="shape=tableRow;horizontal=0;startSize=0;swimlaneHead=0;swimlaneBody=0;fillColor=none;collapsible=0;dropTarget=0;points=[[0,0.5],[1,0.5]];portConstraint=eastwest;top=0;left=0;right=0;bottom=0;" vertex="1" parent="suRE0B9pLVc1ZfChcI6G-33">
          <mxGeometry y="120" width="160" height="30" as="geometry" />
        </mxCell>
        <mxCell id="suRE0B9pLVc1ZfChcI6G-47" style="shape=partialRectangle;connectable=0;fillColor=none;top=0;left=0;bottom=0;right=0;editable=1;overflow=hidden;whiteSpace=wrap;html=1;" vertex="1" parent="suRE0B9pLVc1ZfChcI6G-46">
          <mxGeometry width="30" height="30" as="geometry">
            <mxRectangle width="30" height="30" as="alternateBounds" />
          </mxGeometry>
        </mxCell>
        <mxCell id="suRE0B9pLVc1ZfChcI6G-48" value="price" style="shape=partialRectangle;connectable=0;fillColor=none;top=0;left=0;bottom=0;right=0;align=left;spacingLeft=6;overflow=hidden;whiteSpace=wrap;html=1;" vertex="1" parent="suRE0B9pLVc1ZfChcI6G-46">
          <mxGeometry x="30" width="130" height="30" as="geometry">
            <mxRectangle width="130" height="30" as="alternateBounds" />
          </mxGeometry>
        </mxCell>
        <mxCell id="suRE0B9pLVc1ZfChcI6G-101" style="shape=tableRow;horizontal=0;startSize=0;swimlaneHead=0;swimlaneBody=0;fillColor=none;collapsible=0;dropTarget=0;points=[[0,0.5],[1,0.5]];portConstraint=eastwest;top=0;left=0;right=0;bottom=0;" vertex="1" parent="suRE0B9pLVc1ZfChcI6G-33">
          <mxGeometry y="150" width="160" height="30" as="geometry" />
        </mxCell>
        <mxCell id="suRE0B9pLVc1ZfChcI6G-102" style="shape=partialRectangle;connectable=0;fillColor=none;top=0;left=0;bottom=0;right=0;editable=1;overflow=hidden;whiteSpace=wrap;html=1;" vertex="1" parent="suRE0B9pLVc1ZfChcI6G-101">
          <mxGeometry width="30" height="30" as="geometry">
            <mxRectangle width="30" height="30" as="alternateBounds" />
          </mxGeometry>
        </mxCell>
        <mxCell id="suRE0B9pLVc1ZfChcI6G-103" value="image" style="shape=partialRectangle;connectable=0;fillColor=none;top=0;left=0;bottom=0;right=0;align=left;spacingLeft=6;overflow=hidden;whiteSpace=wrap;html=1;" vertex="1" parent="suRE0B9pLVc1ZfChcI6G-101">
          <mxGeometry x="30" width="130" height="30" as="geometry">
            <mxRectangle width="130" height="30" as="alternateBounds" />
          </mxGeometry>
        </mxCell>
        <mxCell id="suRE0B9pLVc1ZfChcI6G-52" style="shape=tableRow;horizontal=0;startSize=0;swimlaneHead=0;swimlaneBody=0;fillColor=none;collapsible=0;dropTarget=0;points=[[0,0.5],[1,0.5]];portConstraint=eastwest;top=0;left=0;right=0;bottom=0;" vertex="1" parent="suRE0B9pLVc1ZfChcI6G-33">
          <mxGeometry y="180" width="160" height="20" as="geometry" />
        </mxCell>
        <mxCell id="suRE0B9pLVc1ZfChcI6G-53" value="FK" style="shape=partialRectangle;connectable=0;fillColor=none;top=0;left=0;bottom=0;right=0;editable=1;overflow=hidden;whiteSpace=wrap;html=1;" vertex="1" parent="suRE0B9pLVc1ZfChcI6G-52">
          <mxGeometry width="30" height="20" as="geometry">
            <mxRectangle width="30" height="20" as="alternateBounds" />
          </mxGeometry>
        </mxCell>
        <mxCell id="suRE0B9pLVc1ZfChcI6G-54" value="type_category_id" style="shape=partialRectangle;connectable=0;fillColor=none;top=0;left=0;bottom=0;right=0;align=left;spacingLeft=6;overflow=hidden;whiteSpace=wrap;html=1;" vertex="1" parent="suRE0B9pLVc1ZfChcI6G-52">
          <mxGeometry x="30" width="130" height="20" as="geometry">
            <mxRectangle width="130" height="20" as="alternateBounds" />
          </mxGeometry>
        </mxCell>
        <mxCell id="suRE0B9pLVc1ZfChcI6G-55" value="carts" style="shape=table;startSize=30;container=1;collapsible=1;childLayout=tableLayout;fixedRows=1;rowLines=0;fontStyle=1;align=center;resizeLast=1;html=1;" vertex="1" parent="1">
          <mxGeometry x="560" y="400" width="160" height="120" as="geometry">
            <mxRectangle x="560" y="480" width="70" height="30" as="alternateBounds" />
          </mxGeometry>
        </mxCell>
        <mxCell id="suRE0B9pLVc1ZfChcI6G-56" value="" style="shape=tableRow;horizontal=0;startSize=0;swimlaneHead=0;swimlaneBody=0;fillColor=none;collapsible=0;dropTarget=0;points=[[0,0.5],[1,0.5]];portConstraint=eastwest;top=0;left=0;right=0;bottom=1;" vertex="1" parent="suRE0B9pLVc1ZfChcI6G-55">
          <mxGeometry y="30" width="160" height="30" as="geometry" />
        </mxCell>
        <mxCell id="suRE0B9pLVc1ZfChcI6G-57" value="PK" style="shape=partialRectangle;connectable=0;fillColor=none;top=0;left=0;bottom=0;right=0;fontStyle=1;overflow=hidden;whiteSpace=wrap;html=1;" vertex="1" parent="suRE0B9pLVc1ZfChcI6G-56">
          <mxGeometry width="30" height="30" as="geometry">
            <mxRectangle width="30" height="30" as="alternateBounds" />
          </mxGeometry>
        </mxCell>
        <mxCell id="suRE0B9pLVc1ZfChcI6G-58" value="UniqueID" style="shape=partialRectangle;connectable=0;fillColor=none;top=0;left=0;bottom=0;right=0;align=left;spacingLeft=6;fontStyle=5;overflow=hidden;whiteSpace=wrap;html=1;" vertex="1" parent="suRE0B9pLVc1ZfChcI6G-56">
          <mxGeometry x="30" width="130" height="30" as="geometry">
            <mxRectangle width="130" height="30" as="alternateBounds" />
          </mxGeometry>
        </mxCell>
        <mxCell id="suRE0B9pLVc1ZfChcI6G-59" value="" style="shape=tableRow;horizontal=0;startSize=0;swimlaneHead=0;swimlaneBody=0;fillColor=none;collapsible=0;dropTarget=0;points=[[0,0.5],[1,0.5]];portConstraint=eastwest;top=0;left=0;right=0;bottom=0;" vertex="1" parent="suRE0B9pLVc1ZfChcI6G-55">
          <mxGeometry y="60" width="160" height="30" as="geometry" />
        </mxCell>
        <mxCell id="suRE0B9pLVc1ZfChcI6G-60" value="FK" style="shape=partialRectangle;connectable=0;fillColor=none;top=0;left=0;bottom=0;right=0;editable=1;overflow=hidden;whiteSpace=wrap;html=1;" vertex="1" parent="suRE0B9pLVc1ZfChcI6G-59">
          <mxGeometry width="30" height="30" as="geometry">
            <mxRectangle width="30" height="30" as="alternateBounds" />
          </mxGeometry>
        </mxCell>
        <mxCell id="suRE0B9pLVc1ZfChcI6G-61" value="order_id" style="shape=partialRectangle;connectable=0;fillColor=none;top=0;left=0;bottom=0;right=0;align=left;spacingLeft=6;overflow=hidden;whiteSpace=wrap;html=1;" vertex="1" parent="suRE0B9pLVc1ZfChcI6G-59">
          <mxGeometry x="30" width="130" height="30" as="geometry">
            <mxRectangle width="130" height="30" as="alternateBounds" />
          </mxGeometry>
        </mxCell>
        <mxCell id="suRE0B9pLVc1ZfChcI6G-62" value="" style="shape=tableRow;horizontal=0;startSize=0;swimlaneHead=0;swimlaneBody=0;fillColor=none;collapsible=0;dropTarget=0;points=[[0,0.5],[1,0.5]];portConstraint=eastwest;top=0;left=0;right=0;bottom=0;" vertex="1" parent="suRE0B9pLVc1ZfChcI6G-55">
          <mxGeometry y="90" width="160" height="30" as="geometry" />
        </mxCell>
        <mxCell id="suRE0B9pLVc1ZfChcI6G-63" value="FK" style="shape=partialRectangle;connectable=0;fillColor=none;top=0;left=0;bottom=0;right=0;editable=1;overflow=hidden;whiteSpace=wrap;html=1;" vertex="1" parent="suRE0B9pLVc1ZfChcI6G-62">
          <mxGeometry width="30" height="30" as="geometry">
            <mxRectangle width="30" height="30" as="alternateBounds" />
          </mxGeometry>
        </mxCell>
        <mxCell id="suRE0B9pLVc1ZfChcI6G-64" value="product_id" style="shape=partialRectangle;connectable=0;fillColor=none;top=0;left=0;bottom=0;right=0;align=left;spacingLeft=6;overflow=hidden;whiteSpace=wrap;html=1;" vertex="1" parent="suRE0B9pLVc1ZfChcI6G-62">
          <mxGeometry x="30" width="130" height="30" as="geometry">
            <mxRectangle width="130" height="30" as="alternateBounds" />
          </mxGeometry>
        </mxCell>
        <mxCell id="suRE0B9pLVc1ZfChcI6G-65" value="type_categories" style="shape=table;startSize=30;container=1;collapsible=1;childLayout=tableLayout;fixedRows=1;rowLines=0;fontStyle=1;align=center;resizeLast=1;html=1;" vertex="1" parent="1">
          <mxGeometry x="560" y="870" width="160" height="90" as="geometry" />
        </mxCell>
        <mxCell id="suRE0B9pLVc1ZfChcI6G-66" value="" style="shape=tableRow;horizontal=0;startSize=0;swimlaneHead=0;swimlaneBody=0;fillColor=none;collapsible=0;dropTarget=0;points=[[0,0.5],[1,0.5]];portConstraint=eastwest;top=0;left=0;right=0;bottom=1;" vertex="1" parent="suRE0B9pLVc1ZfChcI6G-65">
          <mxGeometry y="30" width="160" height="30" as="geometry" />
        </mxCell>
        <mxCell id="suRE0B9pLVc1ZfChcI6G-67" value="PK" style="shape=partialRectangle;connectable=0;fillColor=none;top=0;left=0;bottom=0;right=0;fontStyle=1;overflow=hidden;whiteSpace=wrap;html=1;" vertex="1" parent="suRE0B9pLVc1ZfChcI6G-66">
          <mxGeometry width="30" height="30" as="geometry">
            <mxRectangle width="30" height="30" as="alternateBounds" />
          </mxGeometry>
        </mxCell>
        <mxCell id="suRE0B9pLVc1ZfChcI6G-68" value="UniqueID" style="shape=partialRectangle;connectable=0;fillColor=none;top=0;left=0;bottom=0;right=0;align=left;spacingLeft=6;fontStyle=5;overflow=hidden;whiteSpace=wrap;html=1;" vertex="1" parent="suRE0B9pLVc1ZfChcI6G-66">
          <mxGeometry x="30" width="130" height="30" as="geometry">
            <mxRectangle width="130" height="30" as="alternateBounds" />
          </mxGeometry>
        </mxCell>
        <mxCell id="suRE0B9pLVc1ZfChcI6G-69" style="shape=tableRow;horizontal=0;startSize=0;swimlaneHead=0;swimlaneBody=0;fillColor=none;collapsible=0;dropTarget=0;points=[[0,0.5],[1,0.5]];portConstraint=eastwest;top=0;left=0;right=0;bottom=0;" vertex="1" parent="suRE0B9pLVc1ZfChcI6G-65">
          <mxGeometry y="60" width="160" height="30" as="geometry" />
        </mxCell>
        <mxCell id="suRE0B9pLVc1ZfChcI6G-70" style="shape=partialRectangle;connectable=0;fillColor=none;top=0;left=0;bottom=0;right=0;editable=1;overflow=hidden;whiteSpace=wrap;html=1;" vertex="1" parent="suRE0B9pLVc1ZfChcI6G-69">
          <mxGeometry width="30" height="30" as="geometry">
            <mxRectangle width="30" height="30" as="alternateBounds" />
          </mxGeometry>
        </mxCell>
        <mxCell id="suRE0B9pLVc1ZfChcI6G-71" value="name" style="shape=partialRectangle;connectable=0;fillColor=none;top=0;left=0;bottom=0;right=0;align=left;spacingLeft=6;overflow=hidden;whiteSpace=wrap;html=1;" vertex="1" parent="suRE0B9pLVc1ZfChcI6G-69">
          <mxGeometry x="30" width="130" height="30" as="geometry">
            <mxRectangle width="130" height="30" as="alternateBounds" />
          </mxGeometry>
        </mxCell>
        <mxCell id="suRE0B9pLVc1ZfChcI6G-72" value="order" style="shape=table;startSize=30;container=1;collapsible=1;childLayout=tableLayout;fixedRows=1;rowLines=0;fontStyle=1;align=center;resizeLast=1;html=1;" vertex="1" parent="1">
          <mxGeometry x="280" y="400" width="120" height="150" as="geometry" />
        </mxCell>
        <mxCell id="suRE0B9pLVc1ZfChcI6G-73" value="" style="shape=tableRow;horizontal=0;startSize=0;swimlaneHead=0;swimlaneBody=0;fillColor=none;collapsible=0;dropTarget=0;points=[[0,0.5],[1,0.5]];portConstraint=eastwest;top=0;left=0;right=0;bottom=1;" vertex="1" parent="suRE0B9pLVc1ZfChcI6G-72">
          <mxGeometry y="30" width="120" height="30" as="geometry" />
        </mxCell>
        <mxCell id="suRE0B9pLVc1ZfChcI6G-74" value="PK" style="shape=partialRectangle;connectable=0;fillColor=none;top=0;left=0;bottom=0;right=0;fontStyle=1;overflow=hidden;whiteSpace=wrap;html=1;" vertex="1" parent="suRE0B9pLVc1ZfChcI6G-73">
          <mxGeometry width="30" height="30" as="geometry">
            <mxRectangle width="30" height="30" as="alternateBounds" />
          </mxGeometry>
        </mxCell>
        <mxCell id="suRE0B9pLVc1ZfChcI6G-75" value="UniqueID" style="shape=partialRectangle;connectable=0;fillColor=none;top=0;left=0;bottom=0;right=0;align=left;spacingLeft=6;fontStyle=5;overflow=hidden;whiteSpace=wrap;html=1;" vertex="1" parent="suRE0B9pLVc1ZfChcI6G-73">
          <mxGeometry x="30" width="90" height="30" as="geometry">
            <mxRectangle width="90" height="30" as="alternateBounds" />
          </mxGeometry>
        </mxCell>
        <mxCell id="suRE0B9pLVc1ZfChcI6G-76" style="shape=tableRow;horizontal=0;startSize=0;swimlaneHead=0;swimlaneBody=0;fillColor=none;collapsible=0;dropTarget=0;points=[[0,0.5],[1,0.5]];portConstraint=eastwest;top=0;left=0;right=0;bottom=0;" vertex="1" parent="suRE0B9pLVc1ZfChcI6G-72">
          <mxGeometry y="60" width="120" height="30" as="geometry" />
        </mxCell>
        <mxCell id="suRE0B9pLVc1ZfChcI6G-77" style="shape=partialRectangle;connectable=0;fillColor=none;top=0;left=0;bottom=0;right=0;editable=1;overflow=hidden;whiteSpace=wrap;html=1;" vertex="1" parent="suRE0B9pLVc1ZfChcI6G-76">
          <mxGeometry width="30" height="30" as="geometry">
            <mxRectangle width="30" height="30" as="alternateBounds" />
          </mxGeometry>
        </mxCell>
        <mxCell id="suRE0B9pLVc1ZfChcI6G-78" value="total_price" style="shape=partialRectangle;connectable=0;fillColor=none;top=0;left=0;bottom=0;right=0;align=left;spacingLeft=6;overflow=hidden;whiteSpace=wrap;html=1;" vertex="1" parent="suRE0B9pLVc1ZfChcI6G-76">
          <mxGeometry x="30" width="90" height="30" as="geometry">
            <mxRectangle width="90" height="30" as="alternateBounds" />
          </mxGeometry>
        </mxCell>
        <mxCell id="suRE0B9pLVc1ZfChcI6G-79" style="shape=tableRow;horizontal=0;startSize=0;swimlaneHead=0;swimlaneBody=0;fillColor=none;collapsible=0;dropTarget=0;points=[[0,0.5],[1,0.5]];portConstraint=eastwest;top=0;left=0;right=0;bottom=0;" vertex="1" parent="suRE0B9pLVc1ZfChcI6G-72">
          <mxGeometry y="90" width="120" height="30" as="geometry" />
        </mxCell>
        <mxCell id="suRE0B9pLVc1ZfChcI6G-80" style="shape=partialRectangle;connectable=0;fillColor=none;top=0;left=0;bottom=0;right=0;editable=1;overflow=hidden;whiteSpace=wrap;html=1;" vertex="1" parent="suRE0B9pLVc1ZfChcI6G-79">
          <mxGeometry width="30" height="30" as="geometry">
            <mxRectangle width="30" height="30" as="alternateBounds" />
          </mxGeometry>
        </mxCell>
        <mxCell id="suRE0B9pLVc1ZfChcI6G-81" value="is_paid" style="shape=partialRectangle;connectable=0;fillColor=none;top=0;left=0;bottom=0;right=0;align=left;spacingLeft=6;overflow=hidden;whiteSpace=wrap;html=1;" vertex="1" parent="suRE0B9pLVc1ZfChcI6G-79">
          <mxGeometry x="30" width="90" height="30" as="geometry">
            <mxRectangle width="90" height="30" as="alternateBounds" />
          </mxGeometry>
        </mxCell>
        <mxCell id="suRE0B9pLVc1ZfChcI6G-82" style="shape=tableRow;horizontal=0;startSize=0;swimlaneHead=0;swimlaneBody=0;fillColor=none;collapsible=0;dropTarget=0;points=[[0,0.5],[1,0.5]];portConstraint=eastwest;top=0;left=0;right=0;bottom=0;" vertex="1" parent="suRE0B9pLVc1ZfChcI6G-72">
          <mxGeometry y="120" width="120" height="30" as="geometry" />
        </mxCell>
        <mxCell id="suRE0B9pLVc1ZfChcI6G-83" value="FK" style="shape=partialRectangle;connectable=0;fillColor=none;top=0;left=0;bottom=0;right=0;editable=1;overflow=hidden;whiteSpace=wrap;html=1;" vertex="1" parent="suRE0B9pLVc1ZfChcI6G-82">
          <mxGeometry width="30" height="30" as="geometry">
            <mxRectangle width="30" height="30" as="alternateBounds" />
          </mxGeometry>
        </mxCell>
        <mxCell id="suRE0B9pLVc1ZfChcI6G-84" value="user_id" style="shape=partialRectangle;connectable=0;fillColor=none;top=0;left=0;bottom=0;right=0;align=left;spacingLeft=6;overflow=hidden;whiteSpace=wrap;html=1;" vertex="1" parent="suRE0B9pLVc1ZfChcI6G-82">
          <mxGeometry x="30" width="90" height="30" as="geometry">
            <mxRectangle width="90" height="30" as="alternateBounds" />
          </mxGeometry>
        </mxCell>
        <mxCell id="suRE0B9pLVc1ZfChcI6G-85" value="" style="fontSize=12;html=1;endArrow=ERoneToMany;rounded=0;edgeStyle=entityRelationEdgeStyle;" edge="1" parent="1" source="suRE0B9pLVc1ZfChcI6G-24" target="suRE0B9pLVc1ZfChcI6G-20">
          <mxGeometry width="100" height="100" relative="1" as="geometry">
            <mxPoint x="490" y="815" as="sourcePoint" />
            <mxPoint x="570" y="1025" as="targetPoint" />
            <Array as="points">
              <mxPoint x="560" y="820" />
              <mxPoint x="560" y="790" />
              <mxPoint x="560" y="760" />
              <mxPoint x="560" y="770" />
            </Array>
          </mxGeometry>
        </mxCell>
        <mxCell id="suRE0B9pLVc1ZfChcI6G-86" value="" style="fontSize=12;html=1;endArrow=ERoneToMany;rounded=0;edgeStyle=entityRelationEdgeStyle;" edge="1" parent="1" source="suRE0B9pLVc1ZfChcI6G-66" target="suRE0B9pLVc1ZfChcI6G-52">
          <mxGeometry width="100" height="100" relative="1" as="geometry">
            <mxPoint x="490" y="815" as="sourcePoint" />
            <mxPoint x="570" y="555" as="targetPoint" />
            <Array as="points">
              <mxPoint x="580" y="840" />
              <mxPoint x="760" y="900" />
              <mxPoint x="580" y="810" />
              <mxPoint x="580" y="780" />
              <mxPoint x="310" y="680" />
              <mxPoint x="580" y="790" />
            </Array>
          </mxGeometry>
        </mxCell>
        <mxCell id="suRE0B9pLVc1ZfChcI6G-87" value="" style="edgeStyle=entityRelationEdgeStyle;fontSize=12;html=1;endArrow=ERoneToMany;rounded=0;" edge="1" parent="1" source="suRE0B9pLVc1ZfChcI6G-2" target="suRE0B9pLVc1ZfChcI6G-82">
          <mxGeometry width="100" height="100" relative="1" as="geometry">
            <mxPoint x="990" y="670" as="sourcePoint" />
            <mxPoint x="990" y="590" as="targetPoint" />
          </mxGeometry>
        </mxCell>
        <mxCell id="suRE0B9pLVc1ZfChcI6G-88" value="" style="edgeStyle=entityRelationEdgeStyle;fontSize=12;html=1;endArrow=ERoneToMany;rounded=0;" edge="1" parent="1" source="suRE0B9pLVc1ZfChcI6G-34" target="suRE0B9pLVc1ZfChcI6G-62">
          <mxGeometry width="100" height="100" relative="1" as="geometry">
            <mxPoint x="705" y="680" as="sourcePoint" />
            <mxPoint x="1055" y="680" as="targetPoint" />
          </mxGeometry>
        </mxCell>
        <mxCell id="suRE0B9pLVc1ZfChcI6G-89" value="" style="edgeStyle=entityRelationEdgeStyle;fontSize=12;html=1;endArrow=ERoneToMany;rounded=0;" edge="1" parent="1" source="suRE0B9pLVc1ZfChcI6G-73" target="suRE0B9pLVc1ZfChcI6G-59">
          <mxGeometry width="100" height="100" relative="1" as="geometry">
            <mxPoint x="730" y="670" as="sourcePoint" />
            <mxPoint x="730" y="555" as="targetPoint" />
          </mxGeometry>
        </mxCell>
      </root>
    </mxGraphModel>
  </diagram>
  <diagram name="Концептуальная модель" id="S8bkCi5du2lm75ZAHla7">
    <mxGraphModel dx="1386" dy="759" grid="1" gridSize="10" guides="1" tooltips="1" connect="1" arrows="1" fold="1" page="1" pageScale="1" pageWidth="827" pageHeight="1169" math="0" shadow="0">
      <root>
        <mxCell id="0" />
        <mxCell id="1" parent="0" />
        <mxCell id="nswUu0TlNLzY02eXfM-z-2" value="&lt;b&gt;users&lt;/b&gt;" style="rounded=0;whiteSpace=wrap;html=1;fillColor=#fa6800;fontColor=#000000;strokeColor=#C73500;" parent="1" vertex="1">
          <mxGeometry x="406" y="319" width="120" height="40" as="geometry" />
        </mxCell>
        <mxCell id="nswUu0TlNLzY02eXfM-z-3" value="&lt;b&gt;roles&lt;/b&gt;" style="rounded=0;whiteSpace=wrap;html=1;fillColor=#fa6800;fontColor=#000000;strokeColor=#C73500;" parent="1" vertex="1">
          <mxGeometry x="406" y="120" width="120" height="40" as="geometry" />
        </mxCell>
        <mxCell id="ymGZKEQZh6bWhW3p47ta-1" value="&lt;b&gt;orders&lt;/b&gt;" style="rounded=0;whiteSpace=wrap;html=1;fillColor=#fa6800;fontColor=#000000;strokeColor=#C73500;" parent="1" vertex="1">
          <mxGeometry x="406" y="560" width="120" height="40" as="geometry" />
        </mxCell>
        <mxCell id="ymGZKEQZh6bWhW3p47ta-2" value="&lt;b&gt;carts&lt;/b&gt;" style="rounded=0;whiteSpace=wrap;html=1;fillColor=#fa6800;fontColor=#000000;strokeColor=#C73500;" parent="1" vertex="1">
          <mxGeometry x="406" y="799" width="120" height="40" as="geometry" />
        </mxCell>
        <mxCell id="slhG2k_itsuE9N7Z_4YH-1" value="&lt;b&gt;products&lt;/b&gt;" style="rounded=0;whiteSpace=wrap;html=1;fillColor=#fa6800;fontColor=#000000;strokeColor=#C73500;" parent="1" vertex="1">
          <mxGeometry x="406" y="1039.5" width="120" height="40" as="geometry" />
        </mxCell>
        <mxCell id="E3wFm66bisXzRdv7exOc-1" value="&lt;b&gt;type_categoties&lt;/b&gt;" style="rounded=0;whiteSpace=wrap;html=1;fillColor=#fa6800;fontColor=#000000;strokeColor=#C73500;" parent="1" vertex="1">
          <mxGeometry x="406" y="1270" width="120" height="40" as="geometry" />
        </mxCell>
        <mxCell id="KkRCIfi72xTlBXtoIL6K-1" value="code" style="ellipse;whiteSpace=wrap;html=1;fillColor=#0050ef;fontColor=#ffffff;strokeColor=#001DBC;" parent="1" vertex="1">
          <mxGeometry x="568" y="115" width="105" height="50" as="geometry" />
        </mxCell>
        <mxCell id="KkRCIfi72xTlBXtoIL6K-2" value="name" style="ellipse;whiteSpace=wrap;html=1;fillColor=#0050ef;fontColor=#ffffff;strokeColor=#001DBC;" parent="1" vertex="1">
          <mxGeometry x="260" y="115" width="105" height="50" as="geometry" />
        </mxCell>
        <mxCell id="RorGVaXJZynu7vBF6vf_-1" value="name" style="ellipse;whiteSpace=wrap;html=1;fillColor=#0050ef;fontColor=#ffffff;strokeColor=#001DBC;" parent="1" vertex="1">
          <mxGeometry x="260" y="250" width="105" height="50" as="geometry" />
        </mxCell>
        <mxCell id="RorGVaXJZynu7vBF6vf_-2" value="phome_number" style="ellipse;whiteSpace=wrap;html=1;fillColor=#0050ef;fontColor=#ffffff;strokeColor=#001DBC;" parent="1" vertex="1">
          <mxGeometry x="260.5" y="300" width="105" height="50" as="geometry" />
        </mxCell>
        <mxCell id="RorGVaXJZynu7vBF6vf_-3" value="login" style="ellipse;whiteSpace=wrap;html=1;fillColor=#0050ef;fontColor=#ffffff;strokeColor=#001DBC;" parent="1" vertex="1">
          <mxGeometry x="260.5" y="350" width="105" height="50" as="geometry" />
        </mxCell>
        <mxCell id="RorGVaXJZynu7vBF6vf_-4" value="id role" style="ellipse;whiteSpace=wrap;html=1;fillColor=#0050ef;fontColor=#ffffff;strokeColor=#001DBC;" parent="1" vertex="1">
          <mxGeometry x="566" y="350" width="105" height="50" as="geometry" />
        </mxCell>
        <mxCell id="RorGVaXJZynu7vBF6vf_-5" value="password" style="ellipse;whiteSpace=wrap;html=1;fillColor=#0050ef;fontColor=#ffffff;strokeColor=#001DBC;" parent="1" vertex="1">
          <mxGeometry x="566" y="250" width="105" height="50" as="geometry" />
        </mxCell>
        <mxCell id="RorGVaXJZynu7vBF6vf_-6" value="image" style="ellipse;whiteSpace=wrap;html=1;fillColor=#0050ef;fontColor=#ffffff;strokeColor=#001DBC;" parent="1" vertex="1">
          <mxGeometry x="566" y="300" width="105" height="50" as="geometry" />
        </mxCell>
        <mxCell id="RorGVaXJZynu7vBF6vf_-7" value="" style="endArrow=none;html=1;rounded=0;" parent="1" source="RorGVaXJZynu7vBF6vf_-3" target="nswUu0TlNLzY02eXfM-z-2" edge="1">
          <mxGeometry width="50" height="50" relative="1" as="geometry">
            <mxPoint x="416" y="439" as="sourcePoint" />
            <mxPoint x="476" y="399" as="targetPoint" />
          </mxGeometry>
        </mxCell>
        <mxCell id="RorGVaXJZynu7vBF6vf_-8" value="" style="endArrow=none;html=1;rounded=0;" parent="1" source="nswUu0TlNLzY02eXfM-z-3" target="KkRCIfi72xTlBXtoIL6K-1" edge="1">
          <mxGeometry width="50" height="50" relative="1" as="geometry">
            <mxPoint x="426" y="210" as="sourcePoint" />
            <mxPoint x="537" y="214" as="targetPoint" />
          </mxGeometry>
        </mxCell>
        <mxCell id="RorGVaXJZynu7vBF6vf_-9" value="" style="endArrow=none;html=1;rounded=0;" parent="1" source="nswUu0TlNLzY02eXfM-z-2" target="RorGVaXJZynu7vBF6vf_-1" edge="1">
          <mxGeometry width="50" height="50" relative="1" as="geometry">
            <mxPoint x="385" y="415" as="sourcePoint" />
            <mxPoint x="496" y="419" as="targetPoint" />
          </mxGeometry>
        </mxCell>
        <mxCell id="RorGVaXJZynu7vBF6vf_-10" value="" style="endArrow=none;html=1;rounded=0;" parent="1" source="nswUu0TlNLzY02eXfM-z-2" target="RorGVaXJZynu7vBF6vf_-2" edge="1">
          <mxGeometry width="50" height="50" relative="1" as="geometry">
            <mxPoint x="395" y="425" as="sourcePoint" />
            <mxPoint x="506" y="429" as="targetPoint" />
          </mxGeometry>
        </mxCell>
        <mxCell id="RorGVaXJZynu7vBF6vf_-11" value="" style="endArrow=none;html=1;rounded=0;" parent="1" source="nswUu0TlNLzY02eXfM-z-2" target="RorGVaXJZynu7vBF6vf_-5" edge="1">
          <mxGeometry width="50" height="50" relative="1" as="geometry">
            <mxPoint x="405" y="435" as="sourcePoint" />
            <mxPoint x="516" y="439" as="targetPoint" />
          </mxGeometry>
        </mxCell>
        <mxCell id="RorGVaXJZynu7vBF6vf_-12" value="" style="endArrow=none;html=1;rounded=0;" parent="1" source="nswUu0TlNLzY02eXfM-z-2" target="RorGVaXJZynu7vBF6vf_-6" edge="1">
          <mxGeometry width="50" height="50" relative="1" as="geometry">
            <mxPoint x="415" y="445" as="sourcePoint" />
            <mxPoint x="526" y="449" as="targetPoint" />
          </mxGeometry>
        </mxCell>
        <mxCell id="RorGVaXJZynu7vBF6vf_-13" value="" style="endArrow=none;html=1;rounded=0;" parent="1" source="RorGVaXJZynu7vBF6vf_-4" target="nswUu0TlNLzY02eXfM-z-2" edge="1">
          <mxGeometry width="50" height="50" relative="1" as="geometry">
            <mxPoint x="425" y="455" as="sourcePoint" />
            <mxPoint x="536" y="459" as="targetPoint" />
          </mxGeometry>
        </mxCell>
        <mxCell id="RorGVaXJZynu7vBF6vf_-14" value="" style="endArrow=none;html=1;rounded=0;" parent="1" source="KkRCIfi72xTlBXtoIL6K-2" target="nswUu0TlNLzY02eXfM-z-3" edge="1">
          <mxGeometry width="50" height="50" relative="1" as="geometry">
            <mxPoint x="436" y="220" as="sourcePoint" />
            <mxPoint x="547" y="224" as="targetPoint" />
          </mxGeometry>
        </mxCell>
        <mxCell id="4v_ghBUYbP6vQuNN5Ds9-3" value="user id" style="ellipse;whiteSpace=wrap;html=1;fillColor=#0050ef;fontColor=#ffffff;strokeColor=#001DBC;" parent="1" vertex="1">
          <mxGeometry x="260" y="530" width="105" height="50" as="geometry" />
        </mxCell>
        <mxCell id="4v_ghBUYbP6vQuNN5Ds9-4" value="total price" style="ellipse;whiteSpace=wrap;html=1;fillColor=#0050ef;fontColor=#ffffff;strokeColor=#001DBC;" parent="1" vertex="1">
          <mxGeometry x="566" y="555" width="105" height="50" as="geometry" />
        </mxCell>
        <mxCell id="4v_ghBUYbP6vQuNN5Ds9-5" value="" style="endArrow=none;html=1;rounded=0;" parent="1" source="ymGZKEQZh6bWhW3p47ta-1" target="4v_ghBUYbP6vQuNN5Ds9-4" edge="1">
          <mxGeometry width="50" height="50" relative="1" as="geometry">
            <mxPoint x="364" y="470" as="sourcePoint" />
            <mxPoint x="420" y="450" as="targetPoint" />
          </mxGeometry>
        </mxCell>
        <mxCell id="4v_ghBUYbP6vQuNN5Ds9-6" value="" style="endArrow=none;html=1;rounded=0;" parent="1" source="4v_ghBUYbP6vQuNN5Ds9-3" target="ymGZKEQZh6bWhW3p47ta-1" edge="1">
          <mxGeometry width="50" height="50" relative="1" as="geometry">
            <mxPoint x="374" y="480" as="sourcePoint" />
            <mxPoint x="430" y="460" as="targetPoint" />
          </mxGeometry>
        </mxCell>
        <mxCell id="lrBELi1Car6LJv37IVFz-1" value="product id" style="ellipse;whiteSpace=wrap;html=1;fillColor=#0050ef;fontColor=#ffffff;strokeColor=#001DBC;" parent="1" vertex="1">
          <mxGeometry x="260" y="794" width="105" height="50" as="geometry" />
        </mxCell>
        <mxCell id="lrBELi1Car6LJv37IVFz-2" value="order id" style="ellipse;whiteSpace=wrap;html=1;fillColor=#0050ef;fontColor=#ffffff;strokeColor=#001DBC;" parent="1" vertex="1">
          <mxGeometry x="566" y="794" width="105" height="50" as="geometry" />
        </mxCell>
        <mxCell id="lrBELi1Car6LJv37IVFz-3" value="" style="endArrow=none;html=1;rounded=0;" parent="1" source="ymGZKEQZh6bWhW3p47ta-2" target="lrBELi1Car6LJv37IVFz-2" edge="1">
          <mxGeometry width="50" height="50" relative="1" as="geometry">
            <mxPoint x="526" y="819" as="sourcePoint" />
            <mxPoint x="420" y="689" as="targetPoint" />
          </mxGeometry>
        </mxCell>
        <mxCell id="lrBELi1Car6LJv37IVFz-4" value="" style="endArrow=none;html=1;rounded=0;" parent="1" source="lrBELi1Car6LJv37IVFz-1" target="ymGZKEQZh6bWhW3p47ta-2" edge="1">
          <mxGeometry width="50" height="50" relative="1" as="geometry">
            <mxPoint x="374" y="719" as="sourcePoint" />
            <mxPoint x="406" y="819" as="targetPoint" />
          </mxGeometry>
        </mxCell>
        <mxCell id="q4gqwFW8HzWAkvz5zNDs-5" value="name" style="ellipse;whiteSpace=wrap;html=1;fillColor=#0050ef;fontColor=#ffffff;strokeColor=#001DBC;" parent="1" vertex="1">
          <mxGeometry x="560" y="1000" width="105" height="50" as="geometry" />
        </mxCell>
        <mxCell id="q4gqwFW8HzWAkvz5zNDs-6" value="description" style="ellipse;whiteSpace=wrap;html=1;fillColor=#0050ef;fontColor=#ffffff;strokeColor=#001DBC;" parent="1" vertex="1">
          <mxGeometry x="260" y="1000" width="105" height="50" as="geometry" />
        </mxCell>
        <mxCell id="q4gqwFW8HzWAkvz5zNDs-7" value="price" style="ellipse;whiteSpace=wrap;html=1;fillColor=#0050ef;fontColor=#ffffff;strokeColor=#001DBC;" parent="1" vertex="1">
          <mxGeometry x="260" y="1060" width="105" height="50" as="geometry" />
        </mxCell>
        <mxCell id="q4gqwFW8HzWAkvz5zNDs-8" value="type category id" style="ellipse;whiteSpace=wrap;html=1;fillColor=#0050ef;fontColor=#ffffff;strokeColor=#001DBC;" parent="1" vertex="1">
          <mxGeometry x="560" y="1060" width="105" height="50" as="geometry" />
        </mxCell>
        <mxCell id="YJHahl4GnWA7Ho4QACVc-1" value="" style="endArrow=none;html=1;rounded=0;" parent="1" source="q4gqwFW8HzWAkvz5zNDs-7" target="slhG2k_itsuE9N7Z_4YH-1" edge="1">
          <mxGeometry width="50" height="50" relative="1" as="geometry">
            <mxPoint x="386" y="981.52" as="sourcePoint" />
            <mxPoint x="476" y="979.5" as="targetPoint" />
          </mxGeometry>
        </mxCell>
        <mxCell id="YJHahl4GnWA7Ho4QACVc-2" value="" style="endArrow=none;html=1;rounded=0;" parent="1" source="q4gqwFW8HzWAkvz5zNDs-6" target="slhG2k_itsuE9N7Z_4YH-1" edge="1">
          <mxGeometry width="50" height="50" relative="1" as="geometry">
            <mxPoint x="396" y="991.52" as="sourcePoint" />
            <mxPoint x="486" y="989.5" as="targetPoint" />
          </mxGeometry>
        </mxCell>
        <mxCell id="YJHahl4GnWA7Ho4QACVc-3" value="" style="endArrow=none;html=1;rounded=0;" parent="1" source="q4gqwFW8HzWAkvz5zNDs-5" target="slhG2k_itsuE9N7Z_4YH-1" edge="1">
          <mxGeometry width="50" height="50" relative="1" as="geometry">
            <mxPoint x="406" y="1001.52" as="sourcePoint" />
            <mxPoint x="496" y="999.5" as="targetPoint" />
          </mxGeometry>
        </mxCell>
        <mxCell id="YJHahl4GnWA7Ho4QACVc-4" value="" style="endArrow=none;html=1;rounded=0;" parent="1" source="slhG2k_itsuE9N7Z_4YH-1" target="q4gqwFW8HzWAkvz5zNDs-8" edge="1">
          <mxGeometry width="50" height="50" relative="1" as="geometry">
            <mxPoint x="416" y="1011.52" as="sourcePoint" />
            <mxPoint x="506" y="1009.5" as="targetPoint" />
          </mxGeometry>
        </mxCell>
        <mxCell id="iRC4NMFX8JrMGeMw71vz-1" value="name" style="ellipse;whiteSpace=wrap;html=1;fillColor=#0050ef;fontColor=#ffffff;strokeColor=#001DBC;" parent="1" vertex="1">
          <mxGeometry x="260" y="1265" width="105" height="50" as="geometry" />
        </mxCell>
        <mxCell id="iRC4NMFX8JrMGeMw71vz-2" value="" style="endArrow=none;html=1;rounded=0;" parent="1" source="iRC4NMFX8JrMGeMw71vz-1" target="E3wFm66bisXzRdv7exOc-1" edge="1">
          <mxGeometry width="50" height="50" relative="1" as="geometry">
            <mxPoint x="366" y="1189" as="sourcePoint" />
            <mxPoint x="418" y="1171" as="targetPoint" />
          </mxGeometry>
        </mxCell>
        <mxCell id="iRC4NMFX8JrMGeMw71vz-3" value="имеет" style="rhombus;whiteSpace=wrap;html=1;fillColor=#60a917;fontColor=#ffffff;strokeColor=#2D7600;" parent="1" vertex="1">
          <mxGeometry x="436" y="209" width="60" height="60" as="geometry" />
        </mxCell>
        <mxCell id="iRC4NMFX8JrMGeMw71vz-4" value="имеет" style="rhombus;whiteSpace=wrap;html=1;fillColor=#60a917;fontColor=#ffffff;strokeColor=#2D7600;" parent="1" vertex="1">
          <mxGeometry x="436" y="430" width="60" height="60" as="geometry" />
        </mxCell>
        <mxCell id="iRC4NMFX8JrMGeMw71vz-5" value="имеет" style="rhombus;whiteSpace=wrap;html=1;fillColor=#60a917;fontColor=#ffffff;strokeColor=#2D7600;" parent="1" vertex="1">
          <mxGeometry x="436" y="670" width="60" height="60" as="geometry" />
        </mxCell>
        <mxCell id="iRC4NMFX8JrMGeMw71vz-6" value="имеет" style="rhombus;whiteSpace=wrap;html=1;fillColor=#60a917;fontColor=#ffffff;strokeColor=#2D7600;" parent="1" vertex="1">
          <mxGeometry x="436" y="910" width="60" height="60" as="geometry" />
        </mxCell>
        <mxCell id="iRC4NMFX8JrMGeMw71vz-7" value="имеет" style="rhombus;whiteSpace=wrap;html=1;fillColor=#60a917;fontColor=#ffffff;strokeColor=#2D7600;" parent="1" vertex="1">
          <mxGeometry x="436" y="1150" width="60" height="60" as="geometry" />
        </mxCell>
        <mxCell id="o9NJAWclaS0UHwlUtzzV-1" value="" style="endArrow=classic;html=1;rounded=0;endFill=1;" parent="1" source="iRC4NMFX8JrMGeMw71vz-3" target="nswUu0TlNLzY02eXfM-z-3" edge="1">
          <mxGeometry width="50" height="50" relative="1" as="geometry">
            <mxPoint x="518" y="250" as="sourcePoint" />
            <mxPoint x="568" y="200" as="targetPoint" />
          </mxGeometry>
        </mxCell>
        <mxCell id="o9NJAWclaS0UHwlUtzzV-2" value="" style="endArrow=doubleBlock;html=1;rounded=0;endFill=1;" parent="1" source="iRC4NMFX8JrMGeMw71vz-3" target="nswUu0TlNLzY02eXfM-z-2" edge="1">
          <mxGeometry width="50" height="50" relative="1" as="geometry">
            <mxPoint x="476" y="219" as="sourcePoint" />
            <mxPoint x="476" y="170" as="targetPoint" />
          </mxGeometry>
        </mxCell>
        <mxCell id="o9NJAWclaS0UHwlUtzzV-3" value="" style="endArrow=classic;html=1;rounded=0;endFill=1;" parent="1" source="iRC4NMFX8JrMGeMw71vz-4" target="nswUu0TlNLzY02eXfM-z-2" edge="1">
          <mxGeometry width="50" height="50" relative="1" as="geometry">
            <mxPoint x="556" y="463" as="sourcePoint" />
            <mxPoint x="556" y="414" as="targetPoint" />
          </mxGeometry>
        </mxCell>
        <mxCell id="o9NJAWclaS0UHwlUtzzV-4" value="" style="endArrow=doubleBlock;html=1;rounded=0;endFill=1;" parent="1" source="iRC4NMFX8JrMGeMw71vz-4" target="ymGZKEQZh6bWhW3p47ta-1" edge="1">
          <mxGeometry width="50" height="50" relative="1" as="geometry">
            <mxPoint x="476" y="440" as="sourcePoint" />
            <mxPoint x="476" y="369" as="targetPoint" />
          </mxGeometry>
        </mxCell>
        <mxCell id="o9NJAWclaS0UHwlUtzzV-5" value="" style="endArrow=classic;html=1;rounded=0;endFill=1;" parent="1" source="iRC4NMFX8JrMGeMw71vz-5" target="ymGZKEQZh6bWhW3p47ta-1" edge="1">
          <mxGeometry width="50" height="50" relative="1" as="geometry">
            <mxPoint x="476" y="500" as="sourcePoint" />
            <mxPoint x="476" y="570" as="targetPoint" />
          </mxGeometry>
        </mxCell>
        <mxCell id="o9NJAWclaS0UHwlUtzzV-6" value="" style="endArrow=doubleBlock;html=1;rounded=0;endFill=1;" parent="1" source="iRC4NMFX8JrMGeMw71vz-5" target="ymGZKEQZh6bWhW3p47ta-2" edge="1">
          <mxGeometry width="50" height="50" relative="1" as="geometry">
            <mxPoint x="476" y="680" as="sourcePoint" />
            <mxPoint x="476" y="610" as="targetPoint" />
          </mxGeometry>
        </mxCell>
        <mxCell id="o9NJAWclaS0UHwlUtzzV-7" value="" style="endArrow=doubleBlock;html=1;rounded=0;endFill=1;" parent="1" source="iRC4NMFX8JrMGeMw71vz-6" target="ymGZKEQZh6bWhW3p47ta-2" edge="1">
          <mxGeometry width="50" height="50" relative="1" as="geometry">
            <mxPoint x="476" y="740" as="sourcePoint" />
            <mxPoint x="476" y="809" as="targetPoint" />
          </mxGeometry>
        </mxCell>
        <mxCell id="o9NJAWclaS0UHwlUtzzV-8" value="" style="endArrow=classic;html=1;rounded=0;endFill=1;" parent="1" source="iRC4NMFX8JrMGeMw71vz-6" target="slhG2k_itsuE9N7Z_4YH-1" edge="1">
          <mxGeometry width="50" height="50" relative="1" as="geometry">
            <mxPoint x="476" y="920" as="sourcePoint" />
            <mxPoint x="476" y="849" as="targetPoint" />
          </mxGeometry>
        </mxCell>
        <mxCell id="o9NJAWclaS0UHwlUtzzV-9" value="" style="endArrow=doubleBlock;html=1;rounded=0;endFill=1;" parent="1" source="iRC4NMFX8JrMGeMw71vz-7" target="slhG2k_itsuE9N7Z_4YH-1" edge="1">
          <mxGeometry width="50" height="50" relative="1" as="geometry">
            <mxPoint x="476" y="980" as="sourcePoint" />
            <mxPoint x="476" y="1050" as="targetPoint" />
          </mxGeometry>
        </mxCell>
        <mxCell id="o9NJAWclaS0UHwlUtzzV-10" value="" style="endArrow=classic;html=1;rounded=0;endFill=1;" parent="1" source="iRC4NMFX8JrMGeMw71vz-7" target="E3wFm66bisXzRdv7exOc-1" edge="1">
          <mxGeometry width="50" height="50" relative="1" as="geometry">
            <mxPoint x="476" y="1160" as="sourcePoint" />
            <mxPoint x="476" y="1090" as="targetPoint" />
          </mxGeometry>
        </mxCell>
        <mxCell id="Yggp5xYecX-gjiCO3DYp-1" value="is paid" style="ellipse;whiteSpace=wrap;html=1;fillColor=#0050ef;fontColor=#ffffff;strokeColor=#001DBC;" parent="1" vertex="1">
          <mxGeometry x="260.5" y="580" width="105" height="50" as="geometry" />
        </mxCell>
        <mxCell id="Yggp5xYecX-gjiCO3DYp-2" value="" style="endArrow=none;html=1;rounded=0;" parent="1" source="Yggp5xYecX-gjiCO3DYp-1" target="ymGZKEQZh6bWhW3p47ta-1" edge="1">
          <mxGeometry width="50" height="50" relative="1" as="geometry">
            <mxPoint x="375" y="590" as="sourcePoint" />
            <mxPoint x="416" y="590" as="targetPoint" />
          </mxGeometry>
        </mxCell>
        <mxCell id="5xVHiLkE_2ofHwaFAi64-1" value="patronymic" style="ellipse;whiteSpace=wrap;html=1;fillColor=#0050ef;fontColor=#ffffff;strokeColor=#001DBC;" vertex="1" parent="1">
          <mxGeometry x="260.5" y="400" width="105" height="50" as="geometry" />
        </mxCell>
        <mxCell id="5xVHiLkE_2ofHwaFAi64-2" value="surname" style="ellipse;whiteSpace=wrap;html=1;fillColor=#0050ef;fontColor=#ffffff;strokeColor=#001DBC;" vertex="1" parent="1">
          <mxGeometry x="566" y="400" width="105" height="50" as="geometry" />
        </mxCell>
        <mxCell id="5xVHiLkE_2ofHwaFAi64-3" value="" style="endArrow=none;html=1;rounded=0;" edge="1" parent="1" source="5xVHiLkE_2ofHwaFAi64-1" target="nswUu0TlNLzY02eXfM-z-2">
          <mxGeometry width="50" height="50" relative="1" as="geometry">
            <mxPoint x="370" y="374" as="sourcePoint" />
            <mxPoint x="416" y="363" as="targetPoint" />
          </mxGeometry>
        </mxCell>
        <mxCell id="5xVHiLkE_2ofHwaFAi64-4" value="" style="endArrow=none;html=1;rounded=0;" edge="1" parent="1" source="5xVHiLkE_2ofHwaFAi64-2" target="nswUu0TlNLzY02eXfM-z-2">
          <mxGeometry width="50" height="50" relative="1" as="geometry">
            <mxPoint x="380" y="384" as="sourcePoint" />
            <mxPoint x="426" y="373" as="targetPoint" />
          </mxGeometry>
        </mxCell>
      </root>
    </mxGraphModel>
  </diagram>
  <diagram name="Физическая модель" id="Z6KBHz6NGvfRazdcP6Qk">
    <mxGraphModel dx="1386" dy="759" grid="1" gridSize="10" guides="1" tooltips="1" connect="1" arrows="1" fold="1" page="1" pageScale="1" pageWidth="827" pageHeight="1169" math="0" shadow="0">
      <root>
        <mxCell id="0" />
        <mxCell id="1" parent="0" />
        <mxCell id="w6H016eybeZFZrX_SYj5-5" value="roles" style="shape=table;startSize=30;container=1;collapsible=1;childLayout=tableLayout;fixedRows=1;rowLines=0;fontStyle=1;align=center;resizeLast=1;html=1;fillColor=#fa6800;fontColor=#000000;strokeColor=#C73500;" parent="1" vertex="1">
          <mxGeometry x="40" y="680" width="610" height="120" as="geometry" />
        </mxCell>
        <mxCell id="w6H016eybeZFZrX_SYj5-6" value="" style="shape=tableRow;horizontal=0;startSize=0;swimlaneHead=0;swimlaneBody=0;fillColor=none;collapsible=0;dropTarget=0;points=[[0,0.5],[1,0.5]];portConstraint=eastwest;top=0;left=0;right=0;bottom=1;" parent="w6H016eybeZFZrX_SYj5-5" vertex="1">
          <mxGeometry y="30" width="610" height="30" as="geometry" />
        </mxCell>
        <mxCell id="w6H016eybeZFZrX_SYj5-7" value="PK" style="shape=partialRectangle;connectable=0;fillColor=none;top=0;left=0;bottom=0;right=0;fontStyle=1;overflow=hidden;whiteSpace=wrap;html=1;" parent="w6H016eybeZFZrX_SYj5-6" vertex="1">
          <mxGeometry width="30" height="30" as="geometry">
            <mxRectangle width="30" height="30" as="alternateBounds" />
          </mxGeometry>
        </mxCell>
        <mxCell id="w6H016eybeZFZrX_SYj5-8" value="UniqueID" style="shape=partialRectangle;connectable=0;fillColor=none;top=0;left=0;bottom=0;right=0;align=left;spacingLeft=6;fontStyle=5;overflow=hidden;whiteSpace=wrap;html=1;" parent="w6H016eybeZFZrX_SYj5-6" vertex="1">
          <mxGeometry x="30" width="150" height="30" as="geometry">
            <mxRectangle width="150" height="30" as="alternateBounds" />
          </mxGeometry>
        </mxCell>
        <mxCell id="w6H016eybeZFZrX_SYj5-18" value="bigint" style="shape=partialRectangle;connectable=0;fillColor=none;top=0;left=0;bottom=0;right=0;align=left;spacingLeft=6;fontStyle=5;overflow=hidden;whiteSpace=wrap;html=1;" parent="w6H016eybeZFZrX_SYj5-6" vertex="1">
          <mxGeometry x="180" width="150" height="30" as="geometry">
            <mxRectangle width="150" height="30" as="alternateBounds" />
          </mxGeometry>
        </mxCell>
        <mxCell id="w6H016eybeZFZrX_SYj5-26" value="AUTO_INCREMENT" style="shape=partialRectangle;connectable=0;fillColor=none;top=0;left=0;bottom=0;right=0;align=left;spacingLeft=6;fontStyle=5;overflow=hidden;whiteSpace=wrap;html=1;" parent="w6H016eybeZFZrX_SYj5-6" vertex="1">
          <mxGeometry x="330" width="130" height="30" as="geometry">
            <mxRectangle width="130" height="30" as="alternateBounds" />
          </mxGeometry>
        </mxCell>
        <mxCell id="w6H016eybeZFZrX_SYj5-36" value="ID_роли" style="shape=partialRectangle;connectable=0;fillColor=none;top=0;left=0;bottom=0;right=0;align=left;spacingLeft=6;fontStyle=5;overflow=hidden;whiteSpace=wrap;html=1;" parent="w6H016eybeZFZrX_SYj5-6" vertex="1">
          <mxGeometry x="460" width="150" height="30" as="geometry">
            <mxRectangle width="150" height="30" as="alternateBounds" />
          </mxGeometry>
        </mxCell>
        <mxCell id="w6H016eybeZFZrX_SYj5-9" value="" style="shape=tableRow;horizontal=0;startSize=0;swimlaneHead=0;swimlaneBody=0;fillColor=none;collapsible=0;dropTarget=0;points=[[0,0.5],[1,0.5]];portConstraint=eastwest;top=0;left=0;right=0;bottom=0;" parent="w6H016eybeZFZrX_SYj5-5" vertex="1">
          <mxGeometry y="60" width="610" height="30" as="geometry" />
        </mxCell>
        <mxCell id="w6H016eybeZFZrX_SYj5-10" value="" style="shape=partialRectangle;connectable=0;fillColor=none;top=0;left=0;bottom=0;right=0;editable=1;overflow=hidden;whiteSpace=wrap;html=1;" parent="w6H016eybeZFZrX_SYj5-9" vertex="1">
          <mxGeometry width="30" height="30" as="geometry">
            <mxRectangle width="30" height="30" as="alternateBounds" />
          </mxGeometry>
        </mxCell>
        <mxCell id="w6H016eybeZFZrX_SYj5-11" value="name" style="shape=partialRectangle;connectable=0;fillColor=none;top=0;left=0;bottom=0;right=0;align=left;spacingLeft=6;overflow=hidden;whiteSpace=wrap;html=1;" parent="w6H016eybeZFZrX_SYj5-9" vertex="1">
          <mxGeometry x="30" width="150" height="30" as="geometry">
            <mxRectangle width="150" height="30" as="alternateBounds" />
          </mxGeometry>
        </mxCell>
        <mxCell id="w6H016eybeZFZrX_SYj5-19" value="varchar(255)" style="shape=partialRectangle;connectable=0;fillColor=none;top=0;left=0;bottom=0;right=0;align=left;spacingLeft=6;overflow=hidden;whiteSpace=wrap;html=1;" parent="w6H016eybeZFZrX_SYj5-9" vertex="1">
          <mxGeometry x="180" width="150" height="30" as="geometry">
            <mxRectangle width="150" height="30" as="alternateBounds" />
          </mxGeometry>
        </mxCell>
        <mxCell id="w6H016eybeZFZrX_SYj5-27" value="NOT NULL" style="shape=partialRectangle;connectable=0;fillColor=none;top=0;left=0;bottom=0;right=0;align=left;spacingLeft=6;overflow=hidden;whiteSpace=wrap;html=1;" parent="w6H016eybeZFZrX_SYj5-9" vertex="1">
          <mxGeometry x="330" width="130" height="30" as="geometry">
            <mxRectangle width="130" height="30" as="alternateBounds" />
          </mxGeometry>
        </mxCell>
        <mxCell id="w6H016eybeZFZrX_SYj5-37" value="Название" style="shape=partialRectangle;connectable=0;fillColor=none;top=0;left=0;bottom=0;right=0;align=left;spacingLeft=6;overflow=hidden;whiteSpace=wrap;html=1;" parent="w6H016eybeZFZrX_SYj5-9" vertex="1">
          <mxGeometry x="460" width="150" height="30" as="geometry">
            <mxRectangle width="150" height="30" as="alternateBounds" />
          </mxGeometry>
        </mxCell>
        <mxCell id="w6H016eybeZFZrX_SYj5-12" value="" style="shape=tableRow;horizontal=0;startSize=0;swimlaneHead=0;swimlaneBody=0;fillColor=none;collapsible=0;dropTarget=0;points=[[0,0.5],[1,0.5]];portConstraint=eastwest;top=0;left=0;right=0;bottom=0;" parent="w6H016eybeZFZrX_SYj5-5" vertex="1">
          <mxGeometry y="90" width="610" height="30" as="geometry" />
        </mxCell>
        <mxCell id="w6H016eybeZFZrX_SYj5-13" value="" style="shape=partialRectangle;connectable=0;fillColor=none;top=0;left=0;bottom=0;right=0;editable=1;overflow=hidden;whiteSpace=wrap;html=1;" parent="w6H016eybeZFZrX_SYj5-12" vertex="1">
          <mxGeometry width="30" height="30" as="geometry">
            <mxRectangle width="30" height="30" as="alternateBounds" />
          </mxGeometry>
        </mxCell>
        <mxCell id="w6H016eybeZFZrX_SYj5-14" value="code" style="shape=partialRectangle;connectable=0;fillColor=none;top=0;left=0;bottom=0;right=0;align=left;spacingLeft=6;overflow=hidden;whiteSpace=wrap;html=1;" parent="w6H016eybeZFZrX_SYj5-12" vertex="1">
          <mxGeometry x="30" width="150" height="30" as="geometry">
            <mxRectangle width="150" height="30" as="alternateBounds" />
          </mxGeometry>
        </mxCell>
        <mxCell id="w6H016eybeZFZrX_SYj5-20" value="varchar(255)" style="shape=partialRectangle;connectable=0;fillColor=none;top=0;left=0;bottom=0;right=0;align=left;spacingLeft=6;overflow=hidden;whiteSpace=wrap;html=1;" parent="w6H016eybeZFZrX_SYj5-12" vertex="1">
          <mxGeometry x="180" width="150" height="30" as="geometry">
            <mxRectangle width="150" height="30" as="alternateBounds" />
          </mxGeometry>
        </mxCell>
        <mxCell id="w6H016eybeZFZrX_SYj5-28" value="NOT NULL" style="shape=partialRectangle;connectable=0;fillColor=none;top=0;left=0;bottom=0;right=0;align=left;spacingLeft=6;overflow=hidden;whiteSpace=wrap;html=1;" parent="w6H016eybeZFZrX_SYj5-12" vertex="1">
          <mxGeometry x="330" width="130" height="30" as="geometry">
            <mxRectangle width="130" height="30" as="alternateBounds" />
          </mxGeometry>
        </mxCell>
        <mxCell id="w6H016eybeZFZrX_SYj5-38" value="Код" style="shape=partialRectangle;connectable=0;fillColor=none;top=0;left=0;bottom=0;right=0;align=left;spacingLeft=6;overflow=hidden;whiteSpace=wrap;html=1;" parent="w6H016eybeZFZrX_SYj5-12" vertex="1">
          <mxGeometry x="460" width="150" height="30" as="geometry">
            <mxRectangle width="150" height="30" as="alternateBounds" />
          </mxGeometry>
        </mxCell>
        <mxCell id="w6H016eybeZFZrX_SYj5-39" value="users" style="shape=table;startSize=30;container=1;collapsible=1;childLayout=tableLayout;fixedRows=1;rowLines=0;fontStyle=1;align=center;resizeLast=1;html=1;fillColor=#fa6800;fontColor=#000000;strokeColor=#C73500;" parent="1" vertex="1">
          <mxGeometry x="40" y="320" width="610" height="300" as="geometry" />
        </mxCell>
        <mxCell id="w6H016eybeZFZrX_SYj5-40" value="" style="shape=tableRow;horizontal=0;startSize=0;swimlaneHead=0;swimlaneBody=0;fillColor=none;collapsible=0;dropTarget=0;points=[[0,0.5],[1,0.5]];portConstraint=eastwest;top=0;left=0;right=0;bottom=1;" parent="w6H016eybeZFZrX_SYj5-39" vertex="1">
          <mxGeometry y="30" width="610" height="30" as="geometry" />
        </mxCell>
        <mxCell id="w6H016eybeZFZrX_SYj5-41" value="PK" style="shape=partialRectangle;connectable=0;fillColor=none;top=0;left=0;bottom=0;right=0;fontStyle=1;overflow=hidden;whiteSpace=wrap;html=1;" parent="w6H016eybeZFZrX_SYj5-40" vertex="1">
          <mxGeometry width="30" height="30" as="geometry">
            <mxRectangle width="30" height="30" as="alternateBounds" />
          </mxGeometry>
        </mxCell>
        <mxCell id="w6H016eybeZFZrX_SYj5-42" value="UniqueID" style="shape=partialRectangle;connectable=0;fillColor=none;top=0;left=0;bottom=0;right=0;align=left;spacingLeft=6;fontStyle=5;overflow=hidden;whiteSpace=wrap;html=1;" parent="w6H016eybeZFZrX_SYj5-40" vertex="1">
          <mxGeometry x="30" width="150" height="30" as="geometry">
            <mxRectangle width="150" height="30" as="alternateBounds" />
          </mxGeometry>
        </mxCell>
        <mxCell id="w6H016eybeZFZrX_SYj5-43" value="bigint" style="shape=partialRectangle;connectable=0;fillColor=none;top=0;left=0;bottom=0;right=0;align=left;spacingLeft=6;fontStyle=5;overflow=hidden;whiteSpace=wrap;html=1;" parent="w6H016eybeZFZrX_SYj5-40" vertex="1">
          <mxGeometry x="180" width="150" height="30" as="geometry">
            <mxRectangle width="150" height="30" as="alternateBounds" />
          </mxGeometry>
        </mxCell>
        <mxCell id="w6H016eybeZFZrX_SYj5-45" value="AUTO_INCREMENT" style="shape=partialRectangle;connectable=0;fillColor=none;top=0;left=0;bottom=0;right=0;align=left;spacingLeft=6;fontStyle=5;overflow=hidden;whiteSpace=wrap;html=1;" parent="w6H016eybeZFZrX_SYj5-40" vertex="1">
          <mxGeometry x="330" width="130" height="30" as="geometry">
            <mxRectangle width="130" height="30" as="alternateBounds" />
          </mxGeometry>
        </mxCell>
        <mxCell id="w6H016eybeZFZrX_SYj5-46" value="ID_роли" style="shape=partialRectangle;connectable=0;fillColor=none;top=0;left=0;bottom=0;right=0;align=left;spacingLeft=6;fontStyle=5;overflow=hidden;whiteSpace=wrap;html=1;" parent="w6H016eybeZFZrX_SYj5-40" vertex="1">
          <mxGeometry x="460" width="150" height="30" as="geometry">
            <mxRectangle width="150" height="30" as="alternateBounds" />
          </mxGeometry>
        </mxCell>
        <mxCell id="w6H016eybeZFZrX_SYj5-47" value="" style="shape=tableRow;horizontal=0;startSize=0;swimlaneHead=0;swimlaneBody=0;fillColor=none;collapsible=0;dropTarget=0;points=[[0,0.5],[1,0.5]];portConstraint=eastwest;top=0;left=0;right=0;bottom=0;" parent="w6H016eybeZFZrX_SYj5-39" vertex="1">
          <mxGeometry y="60" width="610" height="30" as="geometry" />
        </mxCell>
        <mxCell id="w6H016eybeZFZrX_SYj5-48" value="" style="shape=partialRectangle;connectable=0;fillColor=none;top=0;left=0;bottom=0;right=0;editable=1;overflow=hidden;whiteSpace=wrap;html=1;" parent="w6H016eybeZFZrX_SYj5-47" vertex="1">
          <mxGeometry width="30" height="30" as="geometry">
            <mxRectangle width="30" height="30" as="alternateBounds" />
          </mxGeometry>
        </mxCell>
        <mxCell id="w6H016eybeZFZrX_SYj5-49" value="name" style="shape=partialRectangle;connectable=0;fillColor=none;top=0;left=0;bottom=0;right=0;align=left;spacingLeft=6;overflow=hidden;whiteSpace=wrap;html=1;" parent="w6H016eybeZFZrX_SYj5-47" vertex="1">
          <mxGeometry x="30" width="150" height="30" as="geometry">
            <mxRectangle width="150" height="30" as="alternateBounds" />
          </mxGeometry>
        </mxCell>
        <mxCell id="w6H016eybeZFZrX_SYj5-50" value="varchar(255)" style="shape=partialRectangle;connectable=0;fillColor=none;top=0;left=0;bottom=0;right=0;align=left;spacingLeft=6;overflow=hidden;whiteSpace=wrap;html=1;" parent="w6H016eybeZFZrX_SYj5-47" vertex="1">
          <mxGeometry x="180" width="150" height="30" as="geometry">
            <mxRectangle width="150" height="30" as="alternateBounds" />
          </mxGeometry>
        </mxCell>
        <mxCell id="w6H016eybeZFZrX_SYj5-52" value="NOT NULL" style="shape=partialRectangle;connectable=0;fillColor=none;top=0;left=0;bottom=0;right=0;align=left;spacingLeft=6;overflow=hidden;whiteSpace=wrap;html=1;" parent="w6H016eybeZFZrX_SYj5-47" vertex="1">
          <mxGeometry x="330" width="130" height="30" as="geometry">
            <mxRectangle width="130" height="30" as="alternateBounds" />
          </mxGeometry>
        </mxCell>
        <mxCell id="w6H016eybeZFZrX_SYj5-53" value="Имя" style="shape=partialRectangle;connectable=0;fillColor=none;top=0;left=0;bottom=0;right=0;align=left;spacingLeft=6;overflow=hidden;whiteSpace=wrap;html=1;" parent="w6H016eybeZFZrX_SYj5-47" vertex="1">
          <mxGeometry x="460" width="150" height="30" as="geometry">
            <mxRectangle width="150" height="30" as="alternateBounds" />
          </mxGeometry>
        </mxCell>
        <mxCell id="w6H016eybeZFZrX_SYj5-54" value="" style="shape=tableRow;horizontal=0;startSize=0;swimlaneHead=0;swimlaneBody=0;fillColor=none;collapsible=0;dropTarget=0;points=[[0,0.5],[1,0.5]];portConstraint=eastwest;top=0;left=0;right=0;bottom=0;" parent="w6H016eybeZFZrX_SYj5-39" vertex="1">
          <mxGeometry y="90" width="610" height="30" as="geometry" />
        </mxCell>
        <mxCell id="w6H016eybeZFZrX_SYj5-55" value="" style="shape=partialRectangle;connectable=0;fillColor=none;top=0;left=0;bottom=0;right=0;editable=1;overflow=hidden;whiteSpace=wrap;html=1;" parent="w6H016eybeZFZrX_SYj5-54" vertex="1">
          <mxGeometry width="30" height="30" as="geometry">
            <mxRectangle width="30" height="30" as="alternateBounds" />
          </mxGeometry>
        </mxCell>
        <mxCell id="w6H016eybeZFZrX_SYj5-56" value="phone_number" style="shape=partialRectangle;connectable=0;fillColor=none;top=0;left=0;bottom=0;right=0;align=left;spacingLeft=6;overflow=hidden;whiteSpace=wrap;html=1;" parent="w6H016eybeZFZrX_SYj5-54" vertex="1">
          <mxGeometry x="30" width="150" height="30" as="geometry">
            <mxRectangle width="150" height="30" as="alternateBounds" />
          </mxGeometry>
        </mxCell>
        <mxCell id="w6H016eybeZFZrX_SYj5-57" value="int(11)" style="shape=partialRectangle;connectable=0;fillColor=none;top=0;left=0;bottom=0;right=0;align=left;spacingLeft=6;overflow=hidden;whiteSpace=wrap;html=1;" parent="w6H016eybeZFZrX_SYj5-54" vertex="1">
          <mxGeometry x="180" width="150" height="30" as="geometry">
            <mxRectangle width="150" height="30" as="alternateBounds" />
          </mxGeometry>
        </mxCell>
        <mxCell id="w6H016eybeZFZrX_SYj5-59" value="NOT NULL" style="shape=partialRectangle;connectable=0;fillColor=none;top=0;left=0;bottom=0;right=0;align=left;spacingLeft=6;overflow=hidden;whiteSpace=wrap;html=1;" parent="w6H016eybeZFZrX_SYj5-54" vertex="1">
          <mxGeometry x="330" width="130" height="30" as="geometry">
            <mxRectangle width="130" height="30" as="alternateBounds" />
          </mxGeometry>
        </mxCell>
        <mxCell id="w6H016eybeZFZrX_SYj5-60" value="Номер телефона" style="shape=partialRectangle;connectable=0;fillColor=none;top=0;left=0;bottom=0;right=0;align=left;spacingLeft=6;overflow=hidden;whiteSpace=wrap;html=1;" parent="w6H016eybeZFZrX_SYj5-54" vertex="1">
          <mxGeometry x="460" width="150" height="30" as="geometry">
            <mxRectangle width="150" height="30" as="alternateBounds" />
          </mxGeometry>
        </mxCell>
        <mxCell id="w6H016eybeZFZrX_SYj5-61" style="shape=tableRow;horizontal=0;startSize=0;swimlaneHead=0;swimlaneBody=0;fillColor=none;collapsible=0;dropTarget=0;points=[[0,0.5],[1,0.5]];portConstraint=eastwest;top=0;left=0;right=0;bottom=0;" parent="w6H016eybeZFZrX_SYj5-39" vertex="1">
          <mxGeometry y="120" width="610" height="30" as="geometry" />
        </mxCell>
        <mxCell id="w6H016eybeZFZrX_SYj5-62" style="shape=partialRectangle;connectable=0;fillColor=none;top=0;left=0;bottom=0;right=0;editable=1;overflow=hidden;whiteSpace=wrap;html=1;" parent="w6H016eybeZFZrX_SYj5-61" vertex="1">
          <mxGeometry width="30" height="30" as="geometry">
            <mxRectangle width="30" height="30" as="alternateBounds" />
          </mxGeometry>
        </mxCell>
        <mxCell id="w6H016eybeZFZrX_SYj5-63" value="login" style="shape=partialRectangle;connectable=0;fillColor=none;top=0;left=0;bottom=0;right=0;align=left;spacingLeft=6;overflow=hidden;whiteSpace=wrap;html=1;" parent="w6H016eybeZFZrX_SYj5-61" vertex="1">
          <mxGeometry x="30" width="150" height="30" as="geometry">
            <mxRectangle width="150" height="30" as="alternateBounds" />
          </mxGeometry>
        </mxCell>
        <mxCell id="w6H016eybeZFZrX_SYj5-64" value="varchar(255)" style="shape=partialRectangle;connectable=0;fillColor=none;top=0;left=0;bottom=0;right=0;align=left;spacingLeft=6;overflow=hidden;whiteSpace=wrap;html=1;" parent="w6H016eybeZFZrX_SYj5-61" vertex="1">
          <mxGeometry x="180" width="150" height="30" as="geometry">
            <mxRectangle width="150" height="30" as="alternateBounds" />
          </mxGeometry>
        </mxCell>
        <mxCell id="w6H016eybeZFZrX_SYj5-66" value="NOT NULL" style="shape=partialRectangle;connectable=0;fillColor=none;top=0;left=0;bottom=0;right=0;align=left;spacingLeft=6;overflow=hidden;whiteSpace=wrap;html=1;" parent="w6H016eybeZFZrX_SYj5-61" vertex="1">
          <mxGeometry x="330" width="130" height="30" as="geometry">
            <mxRectangle width="130" height="30" as="alternateBounds" />
          </mxGeometry>
        </mxCell>
        <mxCell id="w6H016eybeZFZrX_SYj5-67" value="Логин" style="shape=partialRectangle;connectable=0;fillColor=none;top=0;left=0;bottom=0;right=0;align=left;spacingLeft=6;overflow=hidden;whiteSpace=wrap;html=1;" parent="w6H016eybeZFZrX_SYj5-61" vertex="1">
          <mxGeometry x="460" width="150" height="30" as="geometry">
            <mxRectangle width="150" height="30" as="alternateBounds" />
          </mxGeometry>
        </mxCell>
        <mxCell id="w6H016eybeZFZrX_SYj5-68" style="shape=tableRow;horizontal=0;startSize=0;swimlaneHead=0;swimlaneBody=0;fillColor=none;collapsible=0;dropTarget=0;points=[[0,0.5],[1,0.5]];portConstraint=eastwest;top=0;left=0;right=0;bottom=0;" parent="w6H016eybeZFZrX_SYj5-39" vertex="1">
          <mxGeometry y="150" width="610" height="30" as="geometry" />
        </mxCell>
        <mxCell id="w6H016eybeZFZrX_SYj5-69" style="shape=partialRectangle;connectable=0;fillColor=none;top=0;left=0;bottom=0;right=0;editable=1;overflow=hidden;whiteSpace=wrap;html=1;" parent="w6H016eybeZFZrX_SYj5-68" vertex="1">
          <mxGeometry width="30" height="30" as="geometry">
            <mxRectangle width="30" height="30" as="alternateBounds" />
          </mxGeometry>
        </mxCell>
        <mxCell id="w6H016eybeZFZrX_SYj5-70" value="password" style="shape=partialRectangle;connectable=0;fillColor=none;top=0;left=0;bottom=0;right=0;align=left;spacingLeft=6;overflow=hidden;whiteSpace=wrap;html=1;" parent="w6H016eybeZFZrX_SYj5-68" vertex="1">
          <mxGeometry x="30" width="150" height="30" as="geometry">
            <mxRectangle width="150" height="30" as="alternateBounds" />
          </mxGeometry>
        </mxCell>
        <mxCell id="w6H016eybeZFZrX_SYj5-71" value="varchar(255)" style="shape=partialRectangle;connectable=0;fillColor=none;top=0;left=0;bottom=0;right=0;align=left;spacingLeft=6;overflow=hidden;whiteSpace=wrap;html=1;" parent="w6H016eybeZFZrX_SYj5-68" vertex="1">
          <mxGeometry x="180" width="150" height="30" as="geometry">
            <mxRectangle width="150" height="30" as="alternateBounds" />
          </mxGeometry>
        </mxCell>
        <mxCell id="w6H016eybeZFZrX_SYj5-73" value="NOT NULL" style="shape=partialRectangle;connectable=0;fillColor=none;top=0;left=0;bottom=0;right=0;align=left;spacingLeft=6;overflow=hidden;whiteSpace=wrap;html=1;" parent="w6H016eybeZFZrX_SYj5-68" vertex="1">
          <mxGeometry x="330" width="130" height="30" as="geometry">
            <mxRectangle width="130" height="30" as="alternateBounds" />
          </mxGeometry>
        </mxCell>
        <mxCell id="w6H016eybeZFZrX_SYj5-74" value="Пароль" style="shape=partialRectangle;connectable=0;fillColor=none;top=0;left=0;bottom=0;right=0;align=left;spacingLeft=6;overflow=hidden;whiteSpace=wrap;html=1;" parent="w6H016eybeZFZrX_SYj5-68" vertex="1">
          <mxGeometry x="460" width="150" height="30" as="geometry">
            <mxRectangle width="150" height="30" as="alternateBounds" />
          </mxGeometry>
        </mxCell>
        <mxCell id="l8daqaWQa3NQZiIQZ0Pz-7" style="shape=tableRow;horizontal=0;startSize=0;swimlaneHead=0;swimlaneBody=0;fillColor=none;collapsible=0;dropTarget=0;points=[[0,0.5],[1,0.5]];portConstraint=eastwest;top=0;left=0;right=0;bottom=0;" vertex="1" parent="w6H016eybeZFZrX_SYj5-39">
          <mxGeometry y="180" width="610" height="30" as="geometry" />
        </mxCell>
        <mxCell id="l8daqaWQa3NQZiIQZ0Pz-8" style="shape=partialRectangle;connectable=0;fillColor=none;top=0;left=0;bottom=0;right=0;editable=1;overflow=hidden;whiteSpace=wrap;html=1;" vertex="1" parent="l8daqaWQa3NQZiIQZ0Pz-7">
          <mxGeometry width="30" height="30" as="geometry">
            <mxRectangle width="30" height="30" as="alternateBounds" />
          </mxGeometry>
        </mxCell>
        <mxCell id="l8daqaWQa3NQZiIQZ0Pz-9" value="surname" style="shape=partialRectangle;connectable=0;fillColor=none;top=0;left=0;bottom=0;right=0;align=left;spacingLeft=6;overflow=hidden;whiteSpace=wrap;html=1;" vertex="1" parent="l8daqaWQa3NQZiIQZ0Pz-7">
          <mxGeometry x="30" width="150" height="30" as="geometry">
            <mxRectangle width="150" height="30" as="alternateBounds" />
          </mxGeometry>
        </mxCell>
        <mxCell id="l8daqaWQa3NQZiIQZ0Pz-10" value="varchar(255)" style="shape=partialRectangle;connectable=0;fillColor=none;top=0;left=0;bottom=0;right=0;align=left;spacingLeft=6;overflow=hidden;whiteSpace=wrap;html=1;" vertex="1" parent="l8daqaWQa3NQZiIQZ0Pz-7">
          <mxGeometry x="180" width="150" height="30" as="geometry">
            <mxRectangle width="150" height="30" as="alternateBounds" />
          </mxGeometry>
        </mxCell>
        <mxCell id="l8daqaWQa3NQZiIQZ0Pz-11" value="NOT NULL" style="shape=partialRectangle;connectable=0;fillColor=none;top=0;left=0;bottom=0;right=0;align=left;spacingLeft=6;overflow=hidden;whiteSpace=wrap;html=1;" vertex="1" parent="l8daqaWQa3NQZiIQZ0Pz-7">
          <mxGeometry x="330" width="130" height="30" as="geometry">
            <mxRectangle width="130" height="30" as="alternateBounds" />
          </mxGeometry>
        </mxCell>
        <mxCell id="l8daqaWQa3NQZiIQZ0Pz-12" value="Фамилия" style="shape=partialRectangle;connectable=0;fillColor=none;top=0;left=0;bottom=0;right=0;align=left;spacingLeft=6;overflow=hidden;whiteSpace=wrap;html=1;" vertex="1" parent="l8daqaWQa3NQZiIQZ0Pz-7">
          <mxGeometry x="460" width="150" height="30" as="geometry">
            <mxRectangle width="150" height="30" as="alternateBounds" />
          </mxGeometry>
        </mxCell>
        <mxCell id="l8daqaWQa3NQZiIQZ0Pz-1" style="shape=tableRow;horizontal=0;startSize=0;swimlaneHead=0;swimlaneBody=0;fillColor=none;collapsible=0;dropTarget=0;points=[[0,0.5],[1,0.5]];portConstraint=eastwest;top=0;left=0;right=0;bottom=0;" vertex="1" parent="w6H016eybeZFZrX_SYj5-39">
          <mxGeometry y="210" width="610" height="30" as="geometry" />
        </mxCell>
        <mxCell id="l8daqaWQa3NQZiIQZ0Pz-2" style="shape=partialRectangle;connectable=0;fillColor=none;top=0;left=0;bottom=0;right=0;editable=1;overflow=hidden;whiteSpace=wrap;html=1;" vertex="1" parent="l8daqaWQa3NQZiIQZ0Pz-1">
          <mxGeometry width="30" height="30" as="geometry">
            <mxRectangle width="30" height="30" as="alternateBounds" />
          </mxGeometry>
        </mxCell>
        <mxCell id="l8daqaWQa3NQZiIQZ0Pz-3" value="patronymic" style="shape=partialRectangle;connectable=0;fillColor=none;top=0;left=0;bottom=0;right=0;align=left;spacingLeft=6;overflow=hidden;whiteSpace=wrap;html=1;" vertex="1" parent="l8daqaWQa3NQZiIQZ0Pz-1">
          <mxGeometry x="30" width="150" height="30" as="geometry">
            <mxRectangle width="150" height="30" as="alternateBounds" />
          </mxGeometry>
        </mxCell>
        <mxCell id="l8daqaWQa3NQZiIQZ0Pz-4" value="varchar(2550" style="shape=partialRectangle;connectable=0;fillColor=none;top=0;left=0;bottom=0;right=0;align=left;spacingLeft=6;overflow=hidden;whiteSpace=wrap;html=1;" vertex="1" parent="l8daqaWQa3NQZiIQZ0Pz-1">
          <mxGeometry x="180" width="150" height="30" as="geometry">
            <mxRectangle width="150" height="30" as="alternateBounds" />
          </mxGeometry>
        </mxCell>
        <mxCell id="l8daqaWQa3NQZiIQZ0Pz-5" value="NOT NULL" style="shape=partialRectangle;connectable=0;fillColor=none;top=0;left=0;bottom=0;right=0;align=left;spacingLeft=6;overflow=hidden;whiteSpace=wrap;html=1;" vertex="1" parent="l8daqaWQa3NQZiIQZ0Pz-1">
          <mxGeometry x="330" width="130" height="30" as="geometry">
            <mxRectangle width="130" height="30" as="alternateBounds" />
          </mxGeometry>
        </mxCell>
        <mxCell id="l8daqaWQa3NQZiIQZ0Pz-6" value="Отчество" style="shape=partialRectangle;connectable=0;fillColor=none;top=0;left=0;bottom=0;right=0;align=left;spacingLeft=6;overflow=hidden;whiteSpace=wrap;html=1;" vertex="1" parent="l8daqaWQa3NQZiIQZ0Pz-1">
          <mxGeometry x="460" width="150" height="30" as="geometry">
            <mxRectangle width="150" height="30" as="alternateBounds" />
          </mxGeometry>
        </mxCell>
        <mxCell id="w6H016eybeZFZrX_SYj5-82" style="shape=tableRow;horizontal=0;startSize=0;swimlaneHead=0;swimlaneBody=0;fillColor=none;collapsible=0;dropTarget=0;points=[[0,0.5],[1,0.5]];portConstraint=eastwest;top=0;left=0;right=0;bottom=0;" parent="w6H016eybeZFZrX_SYj5-39" vertex="1">
          <mxGeometry y="240" width="610" height="30" as="geometry" />
        </mxCell>
        <mxCell id="w6H016eybeZFZrX_SYj5-83" value="FK" style="shape=partialRectangle;connectable=0;fillColor=none;top=0;left=0;bottom=0;right=0;editable=1;overflow=hidden;whiteSpace=wrap;html=1;" parent="w6H016eybeZFZrX_SYj5-82" vertex="1">
          <mxGeometry width="30" height="30" as="geometry">
            <mxRectangle width="30" height="30" as="alternateBounds" />
          </mxGeometry>
        </mxCell>
        <mxCell id="w6H016eybeZFZrX_SYj5-84" value="role_id" style="shape=partialRectangle;connectable=0;fillColor=none;top=0;left=0;bottom=0;right=0;align=left;spacingLeft=6;overflow=hidden;whiteSpace=wrap;html=1;" parent="w6H016eybeZFZrX_SYj5-82" vertex="1">
          <mxGeometry x="30" width="150" height="30" as="geometry">
            <mxRectangle width="150" height="30" as="alternateBounds" />
          </mxGeometry>
        </mxCell>
        <mxCell id="w6H016eybeZFZrX_SYj5-85" value="int" style="shape=partialRectangle;connectable=0;fillColor=none;top=0;left=0;bottom=0;right=0;align=left;spacingLeft=6;overflow=hidden;whiteSpace=wrap;html=1;" parent="w6H016eybeZFZrX_SYj5-82" vertex="1">
          <mxGeometry x="180" width="150" height="30" as="geometry">
            <mxRectangle width="150" height="30" as="alternateBounds" />
          </mxGeometry>
        </mxCell>
        <mxCell id="w6H016eybeZFZrX_SYj5-87" value="NOT NULL" style="shape=partialRectangle;connectable=0;fillColor=none;top=0;left=0;bottom=0;right=0;align=left;spacingLeft=6;overflow=hidden;whiteSpace=wrap;html=1;" parent="w6H016eybeZFZrX_SYj5-82" vertex="1">
          <mxGeometry x="330" width="130" height="30" as="geometry">
            <mxRectangle width="130" height="30" as="alternateBounds" />
          </mxGeometry>
        </mxCell>
        <mxCell id="w6H016eybeZFZrX_SYj5-88" value="id роли" style="shape=partialRectangle;connectable=0;fillColor=none;top=0;left=0;bottom=0;right=0;align=left;spacingLeft=6;overflow=hidden;whiteSpace=wrap;html=1;" parent="w6H016eybeZFZrX_SYj5-82" vertex="1">
          <mxGeometry x="460" width="150" height="30" as="geometry">
            <mxRectangle width="150" height="30" as="alternateBounds" />
          </mxGeometry>
        </mxCell>
        <mxCell id="w6H016eybeZFZrX_SYj5-89" style="shape=tableRow;horizontal=0;startSize=0;swimlaneHead=0;swimlaneBody=0;fillColor=none;collapsible=0;dropTarget=0;points=[[0,0.5],[1,0.5]];portConstraint=eastwest;top=0;left=0;right=0;bottom=0;" parent="w6H016eybeZFZrX_SYj5-39" vertex="1">
          <mxGeometry y="270" width="610" height="30" as="geometry" />
        </mxCell>
        <mxCell id="w6H016eybeZFZrX_SYj5-90" style="shape=partialRectangle;connectable=0;fillColor=none;top=0;left=0;bottom=0;right=0;editable=1;overflow=hidden;whiteSpace=wrap;html=1;" parent="w6H016eybeZFZrX_SYj5-89" vertex="1">
          <mxGeometry width="30" height="30" as="geometry">
            <mxRectangle width="30" height="30" as="alternateBounds" />
          </mxGeometry>
        </mxCell>
        <mxCell id="w6H016eybeZFZrX_SYj5-91" value="remember_token" style="shape=partialRectangle;connectable=0;fillColor=none;top=0;left=0;bottom=0;right=0;align=left;spacingLeft=6;overflow=hidden;whiteSpace=wrap;html=1;" parent="w6H016eybeZFZrX_SYj5-89" vertex="1">
          <mxGeometry x="30" width="150" height="30" as="geometry">
            <mxRectangle width="150" height="30" as="alternateBounds" />
          </mxGeometry>
        </mxCell>
        <mxCell id="w6H016eybeZFZrX_SYj5-92" value="varchar(100)" style="shape=partialRectangle;connectable=0;fillColor=none;top=0;left=0;bottom=0;right=0;align=left;spacingLeft=6;overflow=hidden;whiteSpace=wrap;html=1;" parent="w6H016eybeZFZrX_SYj5-89" vertex="1">
          <mxGeometry x="180" width="150" height="30" as="geometry">
            <mxRectangle width="150" height="30" as="alternateBounds" />
          </mxGeometry>
        </mxCell>
        <mxCell id="w6H016eybeZFZrX_SYj5-94" value="NULL" style="shape=partialRectangle;connectable=0;fillColor=none;top=0;left=0;bottom=0;right=0;align=left;spacingLeft=6;overflow=hidden;whiteSpace=wrap;html=1;" parent="w6H016eybeZFZrX_SYj5-89" vertex="1">
          <mxGeometry x="330" width="130" height="30" as="geometry">
            <mxRectangle width="130" height="30" as="alternateBounds" />
          </mxGeometry>
        </mxCell>
        <mxCell id="w6H016eybeZFZrX_SYj5-95" value="Токен" style="shape=partialRectangle;connectable=0;fillColor=none;top=0;left=0;bottom=0;right=0;align=left;spacingLeft=6;overflow=hidden;whiteSpace=wrap;html=1;" parent="w6H016eybeZFZrX_SYj5-89" vertex="1">
          <mxGeometry x="460" width="150" height="30" as="geometry">
            <mxRectangle width="150" height="30" as="alternateBounds" />
          </mxGeometry>
        </mxCell>
        <mxCell id="w6H016eybeZFZrX_SYj5-104" value="orders" style="shape=table;startSize=30;container=1;collapsible=1;childLayout=tableLayout;fixedRows=1;rowLines=0;fontStyle=1;align=center;resizeLast=1;html=1;fillColor=#fa6800;fontColor=#000000;strokeColor=#C73500;" parent="1" vertex="1">
          <mxGeometry x="760" y="320" width="610" height="150" as="geometry" />
        </mxCell>
        <mxCell id="w6H016eybeZFZrX_SYj5-105" value="" style="shape=tableRow;horizontal=0;startSize=0;swimlaneHead=0;swimlaneBody=0;fillColor=none;collapsible=0;dropTarget=0;points=[[0,0.5],[1,0.5]];portConstraint=eastwest;top=0;left=0;right=0;bottom=1;" parent="w6H016eybeZFZrX_SYj5-104" vertex="1">
          <mxGeometry y="30" width="610" height="30" as="geometry" />
        </mxCell>
        <mxCell id="w6H016eybeZFZrX_SYj5-106" value="PK" style="shape=partialRectangle;connectable=0;fillColor=none;top=0;left=0;bottom=0;right=0;fontStyle=1;overflow=hidden;whiteSpace=wrap;html=1;" parent="w6H016eybeZFZrX_SYj5-105" vertex="1">
          <mxGeometry width="30" height="30" as="geometry">
            <mxRectangle width="30" height="30" as="alternateBounds" />
          </mxGeometry>
        </mxCell>
        <mxCell id="w6H016eybeZFZrX_SYj5-107" value="UniqueID" style="shape=partialRectangle;connectable=0;fillColor=none;top=0;left=0;bottom=0;right=0;align=left;spacingLeft=6;fontStyle=5;overflow=hidden;whiteSpace=wrap;html=1;" parent="w6H016eybeZFZrX_SYj5-105" vertex="1">
          <mxGeometry x="30" width="150" height="30" as="geometry">
            <mxRectangle width="150" height="30" as="alternateBounds" />
          </mxGeometry>
        </mxCell>
        <mxCell id="w6H016eybeZFZrX_SYj5-108" value="bigint" style="shape=partialRectangle;connectable=0;fillColor=none;top=0;left=0;bottom=0;right=0;align=left;spacingLeft=6;fontStyle=5;overflow=hidden;whiteSpace=wrap;html=1;" parent="w6H016eybeZFZrX_SYj5-105" vertex="1">
          <mxGeometry x="180" width="150" height="30" as="geometry">
            <mxRectangle width="150" height="30" as="alternateBounds" />
          </mxGeometry>
        </mxCell>
        <mxCell id="w6H016eybeZFZrX_SYj5-109" value="AUTO_INCREMENT" style="shape=partialRectangle;connectable=0;fillColor=none;top=0;left=0;bottom=0;right=0;align=left;spacingLeft=6;fontStyle=5;overflow=hidden;whiteSpace=wrap;html=1;" parent="w6H016eybeZFZrX_SYj5-105" vertex="1">
          <mxGeometry x="330" width="130" height="30" as="geometry">
            <mxRectangle width="130" height="30" as="alternateBounds" />
          </mxGeometry>
        </mxCell>
        <mxCell id="w6H016eybeZFZrX_SYj5-110" value="ID_роли" style="shape=partialRectangle;connectable=0;fillColor=none;top=0;left=0;bottom=0;right=0;align=left;spacingLeft=6;fontStyle=5;overflow=hidden;whiteSpace=wrap;html=1;" parent="w6H016eybeZFZrX_SYj5-105" vertex="1">
          <mxGeometry x="460" width="150" height="30" as="geometry">
            <mxRectangle width="150" height="30" as="alternateBounds" />
          </mxGeometry>
        </mxCell>
        <mxCell id="w6H016eybeZFZrX_SYj5-111" value="" style="shape=tableRow;horizontal=0;startSize=0;swimlaneHead=0;swimlaneBody=0;fillColor=none;collapsible=0;dropTarget=0;points=[[0,0.5],[1,0.5]];portConstraint=eastwest;top=0;left=0;right=0;bottom=0;" parent="w6H016eybeZFZrX_SYj5-104" vertex="1">
          <mxGeometry y="60" width="610" height="30" as="geometry" />
        </mxCell>
        <mxCell id="w6H016eybeZFZrX_SYj5-112" value="" style="shape=partialRectangle;connectable=0;fillColor=none;top=0;left=0;bottom=0;right=0;editable=1;overflow=hidden;whiteSpace=wrap;html=1;" parent="w6H016eybeZFZrX_SYj5-111" vertex="1">
          <mxGeometry width="30" height="30" as="geometry">
            <mxRectangle width="30" height="30" as="alternateBounds" />
          </mxGeometry>
        </mxCell>
        <mxCell id="w6H016eybeZFZrX_SYj5-113" value="total_price" style="shape=partialRectangle;connectable=0;fillColor=none;top=0;left=0;bottom=0;right=0;align=left;spacingLeft=6;overflow=hidden;whiteSpace=wrap;html=1;" parent="w6H016eybeZFZrX_SYj5-111" vertex="1">
          <mxGeometry x="30" width="150" height="30" as="geometry">
            <mxRectangle width="150" height="30" as="alternateBounds" />
          </mxGeometry>
        </mxCell>
        <mxCell id="w6H016eybeZFZrX_SYj5-114" value="decimal(8.2)" style="shape=partialRectangle;connectable=0;fillColor=none;top=0;left=0;bottom=0;right=0;align=left;spacingLeft=6;overflow=hidden;whiteSpace=wrap;html=1;" parent="w6H016eybeZFZrX_SYj5-111" vertex="1">
          <mxGeometry x="180" width="150" height="30" as="geometry">
            <mxRectangle width="150" height="30" as="alternateBounds" />
          </mxGeometry>
        </mxCell>
        <mxCell id="w6H016eybeZFZrX_SYj5-115" value="NOT NULL" style="shape=partialRectangle;connectable=0;fillColor=none;top=0;left=0;bottom=0;right=0;align=left;spacingLeft=6;overflow=hidden;whiteSpace=wrap;html=1;" parent="w6H016eybeZFZrX_SYj5-111" vertex="1">
          <mxGeometry x="330" width="130" height="30" as="geometry">
            <mxRectangle width="130" height="30" as="alternateBounds" />
          </mxGeometry>
        </mxCell>
        <mxCell id="w6H016eybeZFZrX_SYj5-116" value="Общая стоимость" style="shape=partialRectangle;connectable=0;fillColor=none;top=0;left=0;bottom=0;right=0;align=left;spacingLeft=6;overflow=hidden;whiteSpace=wrap;html=1;" parent="w6H016eybeZFZrX_SYj5-111" vertex="1">
          <mxGeometry x="460" width="150" height="30" as="geometry">
            <mxRectangle width="150" height="30" as="alternateBounds" />
          </mxGeometry>
        </mxCell>
        <mxCell id="w6H016eybeZFZrX_SYj5-117" value="" style="shape=tableRow;horizontal=0;startSize=0;swimlaneHead=0;swimlaneBody=0;fillColor=none;collapsible=0;dropTarget=0;points=[[0,0.5],[1,0.5]];portConstraint=eastwest;top=0;left=0;right=0;bottom=0;" parent="w6H016eybeZFZrX_SYj5-104" vertex="1">
          <mxGeometry y="90" width="610" height="30" as="geometry" />
        </mxCell>
        <mxCell id="w6H016eybeZFZrX_SYj5-118" value="" style="shape=partialRectangle;connectable=0;fillColor=none;top=0;left=0;bottom=0;right=0;editable=1;overflow=hidden;whiteSpace=wrap;html=1;" parent="w6H016eybeZFZrX_SYj5-117" vertex="1">
          <mxGeometry width="30" height="30" as="geometry">
            <mxRectangle width="30" height="30" as="alternateBounds" />
          </mxGeometry>
        </mxCell>
        <mxCell id="w6H016eybeZFZrX_SYj5-119" value="is_paid" style="shape=partialRectangle;connectable=0;fillColor=none;top=0;left=0;bottom=0;right=0;align=left;spacingLeft=6;overflow=hidden;whiteSpace=wrap;html=1;" parent="w6H016eybeZFZrX_SYj5-117" vertex="1">
          <mxGeometry x="30" width="150" height="30" as="geometry">
            <mxRectangle width="150" height="30" as="alternateBounds" />
          </mxGeometry>
        </mxCell>
        <mxCell id="w6H016eybeZFZrX_SYj5-120" value="tinyiny(1)" style="shape=partialRectangle;connectable=0;fillColor=none;top=0;left=0;bottom=0;right=0;align=left;spacingLeft=6;overflow=hidden;whiteSpace=wrap;html=1;" parent="w6H016eybeZFZrX_SYj5-117" vertex="1">
          <mxGeometry x="180" width="150" height="30" as="geometry">
            <mxRectangle width="150" height="30" as="alternateBounds" />
          </mxGeometry>
        </mxCell>
        <mxCell id="w6H016eybeZFZrX_SYj5-121" value="NOT NULL" style="shape=partialRectangle;connectable=0;fillColor=none;top=0;left=0;bottom=0;right=0;align=left;spacingLeft=6;overflow=hidden;whiteSpace=wrap;html=1;" parent="w6H016eybeZFZrX_SYj5-117" vertex="1">
          <mxGeometry x="330" width="130" height="30" as="geometry">
            <mxRectangle width="130" height="30" as="alternateBounds" />
          </mxGeometry>
        </mxCell>
        <mxCell id="w6H016eybeZFZrX_SYj5-122" value="Статус оплаты" style="shape=partialRectangle;connectable=0;fillColor=none;top=0;left=0;bottom=0;right=0;align=left;spacingLeft=6;overflow=hidden;whiteSpace=wrap;html=1;" parent="w6H016eybeZFZrX_SYj5-117" vertex="1">
          <mxGeometry x="460" width="150" height="30" as="geometry">
            <mxRectangle width="150" height="30" as="alternateBounds" />
          </mxGeometry>
        </mxCell>
        <mxCell id="w6H016eybeZFZrX_SYj5-123" style="shape=tableRow;horizontal=0;startSize=0;swimlaneHead=0;swimlaneBody=0;fillColor=none;collapsible=0;dropTarget=0;points=[[0,0.5],[1,0.5]];portConstraint=eastwest;top=0;left=0;right=0;bottom=0;" parent="w6H016eybeZFZrX_SYj5-104" vertex="1">
          <mxGeometry y="120" width="610" height="30" as="geometry" />
        </mxCell>
        <mxCell id="w6H016eybeZFZrX_SYj5-124" value="FK" style="shape=partialRectangle;connectable=0;fillColor=none;top=0;left=0;bottom=0;right=0;editable=1;overflow=hidden;whiteSpace=wrap;html=1;" parent="w6H016eybeZFZrX_SYj5-123" vertex="1">
          <mxGeometry width="30" height="30" as="geometry">
            <mxRectangle width="30" height="30" as="alternateBounds" />
          </mxGeometry>
        </mxCell>
        <mxCell id="w6H016eybeZFZrX_SYj5-125" value="user_id" style="shape=partialRectangle;connectable=0;fillColor=none;top=0;left=0;bottom=0;right=0;align=left;spacingLeft=6;overflow=hidden;whiteSpace=wrap;html=1;" parent="w6H016eybeZFZrX_SYj5-123" vertex="1">
          <mxGeometry x="30" width="150" height="30" as="geometry">
            <mxRectangle width="150" height="30" as="alternateBounds" />
          </mxGeometry>
        </mxCell>
        <mxCell id="w6H016eybeZFZrX_SYj5-126" value="int" style="shape=partialRectangle;connectable=0;fillColor=none;top=0;left=0;bottom=0;right=0;align=left;spacingLeft=6;overflow=hidden;whiteSpace=wrap;html=1;" parent="w6H016eybeZFZrX_SYj5-123" vertex="1">
          <mxGeometry x="180" width="150" height="30" as="geometry">
            <mxRectangle width="150" height="30" as="alternateBounds" />
          </mxGeometry>
        </mxCell>
        <mxCell id="w6H016eybeZFZrX_SYj5-127" value="NULL" style="shape=partialRectangle;connectable=0;fillColor=none;top=0;left=0;bottom=0;right=0;align=left;spacingLeft=6;overflow=hidden;whiteSpace=wrap;html=1;" parent="w6H016eybeZFZrX_SYj5-123" vertex="1">
          <mxGeometry x="330" width="130" height="30" as="geometry">
            <mxRectangle width="130" height="30" as="alternateBounds" />
          </mxGeometry>
        </mxCell>
        <mxCell id="w6H016eybeZFZrX_SYj5-128" value="id пользователя" style="shape=partialRectangle;connectable=0;fillColor=none;top=0;left=0;bottom=0;right=0;align=left;spacingLeft=6;overflow=hidden;whiteSpace=wrap;html=1;" parent="w6H016eybeZFZrX_SYj5-123" vertex="1">
          <mxGeometry x="460" width="150" height="30" as="geometry">
            <mxRectangle width="150" height="30" as="alternateBounds" />
          </mxGeometry>
        </mxCell>
        <mxCell id="HFqNzzlQbrmnvtGXMOWn-50" value="carts" style="shape=table;startSize=30;container=1;collapsible=1;childLayout=tableLayout;fixedRows=1;rowLines=0;fontStyle=1;align=center;resizeLast=1;html=1;fillColor=#fa6800;fontColor=#000000;strokeColor=#C73500;" parent="1" vertex="1">
          <mxGeometry x="760" y="560" width="610" height="120" as="geometry" />
        </mxCell>
        <mxCell id="HFqNzzlQbrmnvtGXMOWn-51" value="" style="shape=tableRow;horizontal=0;startSize=0;swimlaneHead=0;swimlaneBody=0;fillColor=none;collapsible=0;dropTarget=0;points=[[0,0.5],[1,0.5]];portConstraint=eastwest;top=0;left=0;right=0;bottom=1;" parent="HFqNzzlQbrmnvtGXMOWn-50" vertex="1">
          <mxGeometry y="30" width="610" height="30" as="geometry" />
        </mxCell>
        <mxCell id="HFqNzzlQbrmnvtGXMOWn-52" value="PK" style="shape=partialRectangle;connectable=0;fillColor=none;top=0;left=0;bottom=0;right=0;fontStyle=1;overflow=hidden;whiteSpace=wrap;html=1;" parent="HFqNzzlQbrmnvtGXMOWn-51" vertex="1">
          <mxGeometry width="30" height="30" as="geometry">
            <mxRectangle width="30" height="30" as="alternateBounds" />
          </mxGeometry>
        </mxCell>
        <mxCell id="HFqNzzlQbrmnvtGXMOWn-53" value="UniqueID" style="shape=partialRectangle;connectable=0;fillColor=none;top=0;left=0;bottom=0;right=0;align=left;spacingLeft=6;fontStyle=5;overflow=hidden;whiteSpace=wrap;html=1;" parent="HFqNzzlQbrmnvtGXMOWn-51" vertex="1">
          <mxGeometry x="30" width="150" height="30" as="geometry">
            <mxRectangle width="150" height="30" as="alternateBounds" />
          </mxGeometry>
        </mxCell>
        <mxCell id="HFqNzzlQbrmnvtGXMOWn-54" value="bigint" style="shape=partialRectangle;connectable=0;fillColor=none;top=0;left=0;bottom=0;right=0;align=left;spacingLeft=6;fontStyle=5;overflow=hidden;whiteSpace=wrap;html=1;" parent="HFqNzzlQbrmnvtGXMOWn-51" vertex="1">
          <mxGeometry x="180" width="150" height="30" as="geometry">
            <mxRectangle width="150" height="30" as="alternateBounds" />
          </mxGeometry>
        </mxCell>
        <mxCell id="HFqNzzlQbrmnvtGXMOWn-55" value="AUTO_INCREMENT" style="shape=partialRectangle;connectable=0;fillColor=none;top=0;left=0;bottom=0;right=0;align=left;spacingLeft=6;fontStyle=5;overflow=hidden;whiteSpace=wrap;html=1;" parent="HFqNzzlQbrmnvtGXMOWn-51" vertex="1">
          <mxGeometry x="330" width="130" height="30" as="geometry">
            <mxRectangle width="130" height="30" as="alternateBounds" />
          </mxGeometry>
        </mxCell>
        <mxCell id="HFqNzzlQbrmnvtGXMOWn-56" value="ID_роли" style="shape=partialRectangle;connectable=0;fillColor=none;top=0;left=0;bottom=0;right=0;align=left;spacingLeft=6;fontStyle=5;overflow=hidden;whiteSpace=wrap;html=1;" parent="HFqNzzlQbrmnvtGXMOWn-51" vertex="1">
          <mxGeometry x="460" width="150" height="30" as="geometry">
            <mxRectangle width="150" height="30" as="alternateBounds" />
          </mxGeometry>
        </mxCell>
        <mxCell id="HFqNzzlQbrmnvtGXMOWn-57" value="" style="shape=tableRow;horizontal=0;startSize=0;swimlaneHead=0;swimlaneBody=0;fillColor=none;collapsible=0;dropTarget=0;points=[[0,0.5],[1,0.5]];portConstraint=eastwest;top=0;left=0;right=0;bottom=0;" parent="HFqNzzlQbrmnvtGXMOWn-50" vertex="1">
          <mxGeometry y="60" width="610" height="30" as="geometry" />
        </mxCell>
        <mxCell id="HFqNzzlQbrmnvtGXMOWn-58" value="FK" style="shape=partialRectangle;connectable=0;fillColor=none;top=0;left=0;bottom=0;right=0;editable=1;overflow=hidden;whiteSpace=wrap;html=1;" parent="HFqNzzlQbrmnvtGXMOWn-57" vertex="1">
          <mxGeometry width="30" height="30" as="geometry">
            <mxRectangle width="30" height="30" as="alternateBounds" />
          </mxGeometry>
        </mxCell>
        <mxCell id="HFqNzzlQbrmnvtGXMOWn-59" value="order_id" style="shape=partialRectangle;connectable=0;fillColor=none;top=0;left=0;bottom=0;right=0;align=left;spacingLeft=6;overflow=hidden;whiteSpace=wrap;html=1;" parent="HFqNzzlQbrmnvtGXMOWn-57" vertex="1">
          <mxGeometry x="30" width="150" height="30" as="geometry">
            <mxRectangle width="150" height="30" as="alternateBounds" />
          </mxGeometry>
        </mxCell>
        <mxCell id="HFqNzzlQbrmnvtGXMOWn-60" value="int" style="shape=partialRectangle;connectable=0;fillColor=none;top=0;left=0;bottom=0;right=0;align=left;spacingLeft=6;overflow=hidden;whiteSpace=wrap;html=1;" parent="HFqNzzlQbrmnvtGXMOWn-57" vertex="1">
          <mxGeometry x="180" width="150" height="30" as="geometry">
            <mxRectangle width="150" height="30" as="alternateBounds" />
          </mxGeometry>
        </mxCell>
        <mxCell id="HFqNzzlQbrmnvtGXMOWn-61" value="NULL" style="shape=partialRectangle;connectable=0;fillColor=none;top=0;left=0;bottom=0;right=0;align=left;spacingLeft=6;overflow=hidden;whiteSpace=wrap;html=1;" parent="HFqNzzlQbrmnvtGXMOWn-57" vertex="1">
          <mxGeometry x="330" width="130" height="30" as="geometry">
            <mxRectangle width="130" height="30" as="alternateBounds" />
          </mxGeometry>
        </mxCell>
        <mxCell id="HFqNzzlQbrmnvtGXMOWn-62" value="id заказа" style="shape=partialRectangle;connectable=0;fillColor=none;top=0;left=0;bottom=0;right=0;align=left;spacingLeft=6;overflow=hidden;whiteSpace=wrap;html=1;" parent="HFqNzzlQbrmnvtGXMOWn-57" vertex="1">
          <mxGeometry x="460" width="150" height="30" as="geometry">
            <mxRectangle width="150" height="30" as="alternateBounds" />
          </mxGeometry>
        </mxCell>
        <mxCell id="HFqNzzlQbrmnvtGXMOWn-69" style="shape=tableRow;horizontal=0;startSize=0;swimlaneHead=0;swimlaneBody=0;fillColor=none;collapsible=0;dropTarget=0;points=[[0,0.5],[1,0.5]];portConstraint=eastwest;top=0;left=0;right=0;bottom=0;" parent="HFqNzzlQbrmnvtGXMOWn-50" vertex="1">
          <mxGeometry y="90" width="610" height="30" as="geometry" />
        </mxCell>
        <mxCell id="HFqNzzlQbrmnvtGXMOWn-70" value="FK" style="shape=partialRectangle;connectable=0;fillColor=none;top=0;left=0;bottom=0;right=0;editable=1;overflow=hidden;whiteSpace=wrap;html=1;" parent="HFqNzzlQbrmnvtGXMOWn-69" vertex="1">
          <mxGeometry width="30" height="30" as="geometry">
            <mxRectangle width="30" height="30" as="alternateBounds" />
          </mxGeometry>
        </mxCell>
        <mxCell id="HFqNzzlQbrmnvtGXMOWn-71" value="product_id" style="shape=partialRectangle;connectable=0;fillColor=none;top=0;left=0;bottom=0;right=0;align=left;spacingLeft=6;overflow=hidden;whiteSpace=wrap;html=1;" parent="HFqNzzlQbrmnvtGXMOWn-69" vertex="1">
          <mxGeometry x="30" width="150" height="30" as="geometry">
            <mxRectangle width="150" height="30" as="alternateBounds" />
          </mxGeometry>
        </mxCell>
        <mxCell id="HFqNzzlQbrmnvtGXMOWn-72" value="int" style="shape=partialRectangle;connectable=0;fillColor=none;top=0;left=0;bottom=0;right=0;align=left;spacingLeft=6;overflow=hidden;whiteSpace=wrap;html=1;" parent="HFqNzzlQbrmnvtGXMOWn-69" vertex="1">
          <mxGeometry x="180" width="150" height="30" as="geometry">
            <mxRectangle width="150" height="30" as="alternateBounds" />
          </mxGeometry>
        </mxCell>
        <mxCell id="HFqNzzlQbrmnvtGXMOWn-73" value="NULL" style="shape=partialRectangle;connectable=0;fillColor=none;top=0;left=0;bottom=0;right=0;align=left;spacingLeft=6;overflow=hidden;whiteSpace=wrap;html=1;" parent="HFqNzzlQbrmnvtGXMOWn-69" vertex="1">
          <mxGeometry x="330" width="130" height="30" as="geometry">
            <mxRectangle width="130" height="30" as="alternateBounds" />
          </mxGeometry>
        </mxCell>
        <mxCell id="HFqNzzlQbrmnvtGXMOWn-74" value="id продукта" style="shape=partialRectangle;connectable=0;fillColor=none;top=0;left=0;bottom=0;right=0;align=left;spacingLeft=6;overflow=hidden;whiteSpace=wrap;html=1;" parent="HFqNzzlQbrmnvtGXMOWn-69" vertex="1">
          <mxGeometry x="460" width="150" height="30" as="geometry">
            <mxRectangle width="150" height="30" as="alternateBounds" />
          </mxGeometry>
        </mxCell>
        <mxCell id="HFqNzzlQbrmnvtGXMOWn-75" value="products" style="shape=table;startSize=30;container=1;collapsible=1;childLayout=tableLayout;fixedRows=1;rowLines=0;fontStyle=1;align=center;resizeLast=1;html=1;fillColor=#fa6800;fontColor=#000000;strokeColor=#C73500;" parent="1" vertex="1">
          <mxGeometry x="760" y="760" width="610" height="210" as="geometry" />
        </mxCell>
        <mxCell id="HFqNzzlQbrmnvtGXMOWn-76" value="" style="shape=tableRow;horizontal=0;startSize=0;swimlaneHead=0;swimlaneBody=0;fillColor=none;collapsible=0;dropTarget=0;points=[[0,0.5],[1,0.5]];portConstraint=eastwest;top=0;left=0;right=0;bottom=1;" parent="HFqNzzlQbrmnvtGXMOWn-75" vertex="1">
          <mxGeometry y="30" width="610" height="30" as="geometry" />
        </mxCell>
        <mxCell id="HFqNzzlQbrmnvtGXMOWn-77" value="PK" style="shape=partialRectangle;connectable=0;fillColor=none;top=0;left=0;bottom=0;right=0;fontStyle=1;overflow=hidden;whiteSpace=wrap;html=1;" parent="HFqNzzlQbrmnvtGXMOWn-76" vertex="1">
          <mxGeometry width="30" height="30" as="geometry">
            <mxRectangle width="30" height="30" as="alternateBounds" />
          </mxGeometry>
        </mxCell>
        <mxCell id="HFqNzzlQbrmnvtGXMOWn-78" value="UniqueID" style="shape=partialRectangle;connectable=0;fillColor=none;top=0;left=0;bottom=0;right=0;align=left;spacingLeft=6;fontStyle=5;overflow=hidden;whiteSpace=wrap;html=1;" parent="HFqNzzlQbrmnvtGXMOWn-76" vertex="1">
          <mxGeometry x="30" width="150" height="30" as="geometry">
            <mxRectangle width="150" height="30" as="alternateBounds" />
          </mxGeometry>
        </mxCell>
        <mxCell id="HFqNzzlQbrmnvtGXMOWn-79" value="bigint" style="shape=partialRectangle;connectable=0;fillColor=none;top=0;left=0;bottom=0;right=0;align=left;spacingLeft=6;fontStyle=5;overflow=hidden;whiteSpace=wrap;html=1;" parent="HFqNzzlQbrmnvtGXMOWn-76" vertex="1">
          <mxGeometry x="180" width="150" height="30" as="geometry">
            <mxRectangle width="150" height="30" as="alternateBounds" />
          </mxGeometry>
        </mxCell>
        <mxCell id="HFqNzzlQbrmnvtGXMOWn-80" value="AUTO_INCREMENT" style="shape=partialRectangle;connectable=0;fillColor=none;top=0;left=0;bottom=0;right=0;align=left;spacingLeft=6;fontStyle=5;overflow=hidden;whiteSpace=wrap;html=1;" parent="HFqNzzlQbrmnvtGXMOWn-76" vertex="1">
          <mxGeometry x="330" width="130" height="30" as="geometry">
            <mxRectangle width="130" height="30" as="alternateBounds" />
          </mxGeometry>
        </mxCell>
        <mxCell id="HFqNzzlQbrmnvtGXMOWn-81" value="ID_роли" style="shape=partialRectangle;connectable=0;fillColor=none;top=0;left=0;bottom=0;right=0;align=left;spacingLeft=6;fontStyle=5;overflow=hidden;whiteSpace=wrap;html=1;" parent="HFqNzzlQbrmnvtGXMOWn-76" vertex="1">
          <mxGeometry x="460" width="150" height="30" as="geometry">
            <mxRectangle width="150" height="30" as="alternateBounds" />
          </mxGeometry>
        </mxCell>
        <mxCell id="HFqNzzlQbrmnvtGXMOWn-82" value="" style="shape=tableRow;horizontal=0;startSize=0;swimlaneHead=0;swimlaneBody=0;fillColor=none;collapsible=0;dropTarget=0;points=[[0,0.5],[1,0.5]];portConstraint=eastwest;top=0;left=0;right=0;bottom=0;" parent="HFqNzzlQbrmnvtGXMOWn-75" vertex="1">
          <mxGeometry y="60" width="610" height="30" as="geometry" />
        </mxCell>
        <mxCell id="HFqNzzlQbrmnvtGXMOWn-83" value="" style="shape=partialRectangle;connectable=0;fillColor=none;top=0;left=0;bottom=0;right=0;editable=1;overflow=hidden;whiteSpace=wrap;html=1;" parent="HFqNzzlQbrmnvtGXMOWn-82" vertex="1">
          <mxGeometry width="30" height="30" as="geometry">
            <mxRectangle width="30" height="30" as="alternateBounds" />
          </mxGeometry>
        </mxCell>
        <mxCell id="HFqNzzlQbrmnvtGXMOWn-84" value="image" style="shape=partialRectangle;connectable=0;fillColor=none;top=0;left=0;bottom=0;right=0;align=left;spacingLeft=6;overflow=hidden;whiteSpace=wrap;html=1;" parent="HFqNzzlQbrmnvtGXMOWn-82" vertex="1">
          <mxGeometry x="30" width="150" height="30" as="geometry">
            <mxRectangle width="150" height="30" as="alternateBounds" />
          </mxGeometry>
        </mxCell>
        <mxCell id="HFqNzzlQbrmnvtGXMOWn-85" value="varchar(255)" style="shape=partialRectangle;connectable=0;fillColor=none;top=0;left=0;bottom=0;right=0;align=left;spacingLeft=6;overflow=hidden;whiteSpace=wrap;html=1;" parent="HFqNzzlQbrmnvtGXMOWn-82" vertex="1">
          <mxGeometry x="180" width="150" height="30" as="geometry">
            <mxRectangle width="150" height="30" as="alternateBounds" />
          </mxGeometry>
        </mxCell>
        <mxCell id="HFqNzzlQbrmnvtGXMOWn-86" value="NOT NULL" style="shape=partialRectangle;connectable=0;fillColor=none;top=0;left=0;bottom=0;right=0;align=left;spacingLeft=6;overflow=hidden;whiteSpace=wrap;html=1;" parent="HFqNzzlQbrmnvtGXMOWn-82" vertex="1">
          <mxGeometry x="330" width="130" height="30" as="geometry">
            <mxRectangle width="130" height="30" as="alternateBounds" />
          </mxGeometry>
        </mxCell>
        <mxCell id="HFqNzzlQbrmnvtGXMOWn-87" value="Изображение" style="shape=partialRectangle;connectable=0;fillColor=none;top=0;left=0;bottom=0;right=0;align=left;spacingLeft=6;overflow=hidden;whiteSpace=wrap;html=1;" parent="HFqNzzlQbrmnvtGXMOWn-82" vertex="1">
          <mxGeometry x="460" width="150" height="30" as="geometry">
            <mxRectangle width="150" height="30" as="alternateBounds" />
          </mxGeometry>
        </mxCell>
        <mxCell id="HFqNzzlQbrmnvtGXMOWn-88" value="" style="shape=tableRow;horizontal=0;startSize=0;swimlaneHead=0;swimlaneBody=0;fillColor=none;collapsible=0;dropTarget=0;points=[[0,0.5],[1,0.5]];portConstraint=eastwest;top=0;left=0;right=0;bottom=0;" parent="HFqNzzlQbrmnvtGXMOWn-75" vertex="1">
          <mxGeometry y="90" width="610" height="30" as="geometry" />
        </mxCell>
        <mxCell id="HFqNzzlQbrmnvtGXMOWn-89" value="" style="shape=partialRectangle;connectable=0;fillColor=none;top=0;left=0;bottom=0;right=0;editable=1;overflow=hidden;whiteSpace=wrap;html=1;" parent="HFqNzzlQbrmnvtGXMOWn-88" vertex="1">
          <mxGeometry width="30" height="30" as="geometry">
            <mxRectangle width="30" height="30" as="alternateBounds" />
          </mxGeometry>
        </mxCell>
        <mxCell id="HFqNzzlQbrmnvtGXMOWn-90" value="name" style="shape=partialRectangle;connectable=0;fillColor=none;top=0;left=0;bottom=0;right=0;align=left;spacingLeft=6;overflow=hidden;whiteSpace=wrap;html=1;" parent="HFqNzzlQbrmnvtGXMOWn-88" vertex="1">
          <mxGeometry x="30" width="150" height="30" as="geometry">
            <mxRectangle width="150" height="30" as="alternateBounds" />
          </mxGeometry>
        </mxCell>
        <mxCell id="HFqNzzlQbrmnvtGXMOWn-91" value="varchar(255)" style="shape=partialRectangle;connectable=0;fillColor=none;top=0;left=0;bottom=0;right=0;align=left;spacingLeft=6;overflow=hidden;whiteSpace=wrap;html=1;" parent="HFqNzzlQbrmnvtGXMOWn-88" vertex="1">
          <mxGeometry x="180" width="150" height="30" as="geometry">
            <mxRectangle width="150" height="30" as="alternateBounds" />
          </mxGeometry>
        </mxCell>
        <mxCell id="HFqNzzlQbrmnvtGXMOWn-92" value="NOT NULL" style="shape=partialRectangle;connectable=0;fillColor=none;top=0;left=0;bottom=0;right=0;align=left;spacingLeft=6;overflow=hidden;whiteSpace=wrap;html=1;" parent="HFqNzzlQbrmnvtGXMOWn-88" vertex="1">
          <mxGeometry x="330" width="130" height="30" as="geometry">
            <mxRectangle width="130" height="30" as="alternateBounds" />
          </mxGeometry>
        </mxCell>
        <mxCell id="HFqNzzlQbrmnvtGXMOWn-93" value="Заголовок" style="shape=partialRectangle;connectable=0;fillColor=none;top=0;left=0;bottom=0;right=0;align=left;spacingLeft=6;overflow=hidden;whiteSpace=wrap;html=1;" parent="HFqNzzlQbrmnvtGXMOWn-88" vertex="1">
          <mxGeometry x="460" width="150" height="30" as="geometry">
            <mxRectangle width="150" height="30" as="alternateBounds" />
          </mxGeometry>
        </mxCell>
        <mxCell id="HFqNzzlQbrmnvtGXMOWn-94" style="shape=tableRow;horizontal=0;startSize=0;swimlaneHead=0;swimlaneBody=0;fillColor=none;collapsible=0;dropTarget=0;points=[[0,0.5],[1,0.5]];portConstraint=eastwest;top=0;left=0;right=0;bottom=0;" parent="HFqNzzlQbrmnvtGXMOWn-75" vertex="1">
          <mxGeometry y="120" width="610" height="30" as="geometry" />
        </mxCell>
        <mxCell id="HFqNzzlQbrmnvtGXMOWn-95" style="shape=partialRectangle;connectable=0;fillColor=none;top=0;left=0;bottom=0;right=0;editable=1;overflow=hidden;whiteSpace=wrap;html=1;" parent="HFqNzzlQbrmnvtGXMOWn-94" vertex="1">
          <mxGeometry width="30" height="30" as="geometry">
            <mxRectangle width="30" height="30" as="alternateBounds" />
          </mxGeometry>
        </mxCell>
        <mxCell id="HFqNzzlQbrmnvtGXMOWn-96" value="description" style="shape=partialRectangle;connectable=0;fillColor=none;top=0;left=0;bottom=0;right=0;align=left;spacingLeft=6;overflow=hidden;whiteSpace=wrap;html=1;" parent="HFqNzzlQbrmnvtGXMOWn-94" vertex="1">
          <mxGeometry x="30" width="150" height="30" as="geometry">
            <mxRectangle width="150" height="30" as="alternateBounds" />
          </mxGeometry>
        </mxCell>
        <mxCell id="HFqNzzlQbrmnvtGXMOWn-97" value="varchar(255)" style="shape=partialRectangle;connectable=0;fillColor=none;top=0;left=0;bottom=0;right=0;align=left;spacingLeft=6;overflow=hidden;whiteSpace=wrap;html=1;" parent="HFqNzzlQbrmnvtGXMOWn-94" vertex="1">
          <mxGeometry x="180" width="150" height="30" as="geometry">
            <mxRectangle width="150" height="30" as="alternateBounds" />
          </mxGeometry>
        </mxCell>
        <mxCell id="HFqNzzlQbrmnvtGXMOWn-98" value="NOT NULL" style="shape=partialRectangle;connectable=0;fillColor=none;top=0;left=0;bottom=0;right=0;align=left;spacingLeft=6;overflow=hidden;whiteSpace=wrap;html=1;" parent="HFqNzzlQbrmnvtGXMOWn-94" vertex="1">
          <mxGeometry x="330" width="130" height="30" as="geometry">
            <mxRectangle width="130" height="30" as="alternateBounds" />
          </mxGeometry>
        </mxCell>
        <mxCell id="HFqNzzlQbrmnvtGXMOWn-99" value="Под заголовок" style="shape=partialRectangle;connectable=0;fillColor=none;top=0;left=0;bottom=0;right=0;align=left;spacingLeft=6;overflow=hidden;whiteSpace=wrap;html=1;" parent="HFqNzzlQbrmnvtGXMOWn-94" vertex="1">
          <mxGeometry x="460" width="150" height="30" as="geometry">
            <mxRectangle width="150" height="30" as="alternateBounds" />
          </mxGeometry>
        </mxCell>
        <mxCell id="HFqNzzlQbrmnvtGXMOWn-100" style="shape=tableRow;horizontal=0;startSize=0;swimlaneHead=0;swimlaneBody=0;fillColor=none;collapsible=0;dropTarget=0;points=[[0,0.5],[1,0.5]];portConstraint=eastwest;top=0;left=0;right=0;bottom=0;" parent="HFqNzzlQbrmnvtGXMOWn-75" vertex="1">
          <mxGeometry y="150" width="610" height="30" as="geometry" />
        </mxCell>
        <mxCell id="HFqNzzlQbrmnvtGXMOWn-101" style="shape=partialRectangle;connectable=0;fillColor=none;top=0;left=0;bottom=0;right=0;editable=1;overflow=hidden;whiteSpace=wrap;html=1;" parent="HFqNzzlQbrmnvtGXMOWn-100" vertex="1">
          <mxGeometry width="30" height="30" as="geometry">
            <mxRectangle width="30" height="30" as="alternateBounds" />
          </mxGeometry>
        </mxCell>
        <mxCell id="HFqNzzlQbrmnvtGXMOWn-102" value="price" style="shape=partialRectangle;connectable=0;fillColor=none;top=0;left=0;bottom=0;right=0;align=left;spacingLeft=6;overflow=hidden;whiteSpace=wrap;html=1;" parent="HFqNzzlQbrmnvtGXMOWn-100" vertex="1">
          <mxGeometry x="30" width="150" height="30" as="geometry">
            <mxRectangle width="150" height="30" as="alternateBounds" />
          </mxGeometry>
        </mxCell>
        <mxCell id="HFqNzzlQbrmnvtGXMOWn-103" value="decimal(8.2)" style="shape=partialRectangle;connectable=0;fillColor=none;top=0;left=0;bottom=0;right=0;align=left;spacingLeft=6;overflow=hidden;whiteSpace=wrap;html=1;" parent="HFqNzzlQbrmnvtGXMOWn-100" vertex="1">
          <mxGeometry x="180" width="150" height="30" as="geometry">
            <mxRectangle width="150" height="30" as="alternateBounds" />
          </mxGeometry>
        </mxCell>
        <mxCell id="HFqNzzlQbrmnvtGXMOWn-104" value="NOT NULL" style="shape=partialRectangle;connectable=0;fillColor=none;top=0;left=0;bottom=0;right=0;align=left;spacingLeft=6;overflow=hidden;whiteSpace=wrap;html=1;" parent="HFqNzzlQbrmnvtGXMOWn-100" vertex="1">
          <mxGeometry x="330" width="130" height="30" as="geometry">
            <mxRectangle width="130" height="30" as="alternateBounds" />
          </mxGeometry>
        </mxCell>
        <mxCell id="HFqNzzlQbrmnvtGXMOWn-105" value="Цена" style="shape=partialRectangle;connectable=0;fillColor=none;top=0;left=0;bottom=0;right=0;align=left;spacingLeft=6;overflow=hidden;whiteSpace=wrap;html=1;" parent="HFqNzzlQbrmnvtGXMOWn-100" vertex="1">
          <mxGeometry x="460" width="150" height="30" as="geometry">
            <mxRectangle width="150" height="30" as="alternateBounds" />
          </mxGeometry>
        </mxCell>
        <mxCell id="HFqNzzlQbrmnvtGXMOWn-112" style="shape=tableRow;horizontal=0;startSize=0;swimlaneHead=0;swimlaneBody=0;fillColor=none;collapsible=0;dropTarget=0;points=[[0,0.5],[1,0.5]];portConstraint=eastwest;top=0;left=0;right=0;bottom=0;" parent="HFqNzzlQbrmnvtGXMOWn-75" vertex="1">
          <mxGeometry y="180" width="610" height="30" as="geometry" />
        </mxCell>
        <mxCell id="HFqNzzlQbrmnvtGXMOWn-113" value="FK" style="shape=partialRectangle;connectable=0;fillColor=none;top=0;left=0;bottom=0;right=0;editable=1;overflow=hidden;whiteSpace=wrap;html=1;" parent="HFqNzzlQbrmnvtGXMOWn-112" vertex="1">
          <mxGeometry width="30" height="30" as="geometry">
            <mxRectangle width="30" height="30" as="alternateBounds" />
          </mxGeometry>
        </mxCell>
        <mxCell id="HFqNzzlQbrmnvtGXMOWn-114" value="type_category_id" style="shape=partialRectangle;connectable=0;fillColor=none;top=0;left=0;bottom=0;right=0;align=left;spacingLeft=6;overflow=hidden;whiteSpace=wrap;html=1;" parent="HFqNzzlQbrmnvtGXMOWn-112" vertex="1">
          <mxGeometry x="30" width="150" height="30" as="geometry">
            <mxRectangle width="150" height="30" as="alternateBounds" />
          </mxGeometry>
        </mxCell>
        <mxCell id="HFqNzzlQbrmnvtGXMOWn-115" value="int" style="shape=partialRectangle;connectable=0;fillColor=none;top=0;left=0;bottom=0;right=0;align=left;spacingLeft=6;overflow=hidden;whiteSpace=wrap;html=1;" parent="HFqNzzlQbrmnvtGXMOWn-112" vertex="1">
          <mxGeometry x="180" width="150" height="30" as="geometry">
            <mxRectangle width="150" height="30" as="alternateBounds" />
          </mxGeometry>
        </mxCell>
        <mxCell id="HFqNzzlQbrmnvtGXMOWn-116" value="NOT NULL" style="shape=partialRectangle;connectable=0;fillColor=none;top=0;left=0;bottom=0;right=0;align=left;spacingLeft=6;overflow=hidden;whiteSpace=wrap;html=1;" parent="HFqNzzlQbrmnvtGXMOWn-112" vertex="1">
          <mxGeometry x="330" width="130" height="30" as="geometry">
            <mxRectangle width="130" height="30" as="alternateBounds" />
          </mxGeometry>
        </mxCell>
        <mxCell id="HFqNzzlQbrmnvtGXMOWn-117" value="id типа категории" style="shape=partialRectangle;connectable=0;fillColor=none;top=0;left=0;bottom=0;right=0;align=left;spacingLeft=6;overflow=hidden;whiteSpace=wrap;html=1;" parent="HFqNzzlQbrmnvtGXMOWn-112" vertex="1">
          <mxGeometry x="460" width="150" height="30" as="geometry">
            <mxRectangle width="150" height="30" as="alternateBounds" />
          </mxGeometry>
        </mxCell>
        <mxCell id="HFqNzzlQbrmnvtGXMOWn-124" value="type_categories" style="shape=table;startSize=30;container=1;collapsible=1;childLayout=tableLayout;fixedRows=1;rowLines=0;fontStyle=1;align=center;resizeLast=1;html=1;fillColor=#fa6800;fontColor=#000000;strokeColor=#C73500;" parent="1" vertex="1">
          <mxGeometry x="760" y="1080" width="610" height="90" as="geometry" />
        </mxCell>
        <mxCell id="HFqNzzlQbrmnvtGXMOWn-125" value="" style="shape=tableRow;horizontal=0;startSize=0;swimlaneHead=0;swimlaneBody=0;fillColor=none;collapsible=0;dropTarget=0;points=[[0,0.5],[1,0.5]];portConstraint=eastwest;top=0;left=0;right=0;bottom=1;" parent="HFqNzzlQbrmnvtGXMOWn-124" vertex="1">
          <mxGeometry y="30" width="610" height="30" as="geometry" />
        </mxCell>
        <mxCell id="HFqNzzlQbrmnvtGXMOWn-126" value="PK" style="shape=partialRectangle;connectable=0;fillColor=none;top=0;left=0;bottom=0;right=0;fontStyle=1;overflow=hidden;whiteSpace=wrap;html=1;" parent="HFqNzzlQbrmnvtGXMOWn-125" vertex="1">
          <mxGeometry width="30" height="30" as="geometry">
            <mxRectangle width="30" height="30" as="alternateBounds" />
          </mxGeometry>
        </mxCell>
        <mxCell id="HFqNzzlQbrmnvtGXMOWn-127" value="UniqueID" style="shape=partialRectangle;connectable=0;fillColor=none;top=0;left=0;bottom=0;right=0;align=left;spacingLeft=6;fontStyle=5;overflow=hidden;whiteSpace=wrap;html=1;" parent="HFqNzzlQbrmnvtGXMOWn-125" vertex="1">
          <mxGeometry x="30" width="150" height="30" as="geometry">
            <mxRectangle width="150" height="30" as="alternateBounds" />
          </mxGeometry>
        </mxCell>
        <mxCell id="HFqNzzlQbrmnvtGXMOWn-128" value="bigint" style="shape=partialRectangle;connectable=0;fillColor=none;top=0;left=0;bottom=0;right=0;align=left;spacingLeft=6;fontStyle=5;overflow=hidden;whiteSpace=wrap;html=1;" parent="HFqNzzlQbrmnvtGXMOWn-125" vertex="1">
          <mxGeometry x="180" width="150" height="30" as="geometry">
            <mxRectangle width="150" height="30" as="alternateBounds" />
          </mxGeometry>
        </mxCell>
        <mxCell id="HFqNzzlQbrmnvtGXMOWn-129" value="AUTO_INCREMENT" style="shape=partialRectangle;connectable=0;fillColor=none;top=0;left=0;bottom=0;right=0;align=left;spacingLeft=6;fontStyle=5;overflow=hidden;whiteSpace=wrap;html=1;" parent="HFqNzzlQbrmnvtGXMOWn-125" vertex="1">
          <mxGeometry x="330" width="130" height="30" as="geometry">
            <mxRectangle width="130" height="30" as="alternateBounds" />
          </mxGeometry>
        </mxCell>
        <mxCell id="HFqNzzlQbrmnvtGXMOWn-130" value="ID_роли" style="shape=partialRectangle;connectable=0;fillColor=none;top=0;left=0;bottom=0;right=0;align=left;spacingLeft=6;fontStyle=5;overflow=hidden;whiteSpace=wrap;html=1;" parent="HFqNzzlQbrmnvtGXMOWn-125" vertex="1">
          <mxGeometry x="460" width="150" height="30" as="geometry">
            <mxRectangle width="150" height="30" as="alternateBounds" />
          </mxGeometry>
        </mxCell>
        <mxCell id="HFqNzzlQbrmnvtGXMOWn-131" value="" style="shape=tableRow;horizontal=0;startSize=0;swimlaneHead=0;swimlaneBody=0;fillColor=none;collapsible=0;dropTarget=0;points=[[0,0.5],[1,0.5]];portConstraint=eastwest;top=0;left=0;right=0;bottom=0;" parent="HFqNzzlQbrmnvtGXMOWn-124" vertex="1">
          <mxGeometry y="60" width="610" height="30" as="geometry" />
        </mxCell>
        <mxCell id="HFqNzzlQbrmnvtGXMOWn-132" value="" style="shape=partialRectangle;connectable=0;fillColor=none;top=0;left=0;bottom=0;right=0;editable=1;overflow=hidden;whiteSpace=wrap;html=1;" parent="HFqNzzlQbrmnvtGXMOWn-131" vertex="1">
          <mxGeometry width="30" height="30" as="geometry">
            <mxRectangle width="30" height="30" as="alternateBounds" />
          </mxGeometry>
        </mxCell>
        <mxCell id="HFqNzzlQbrmnvtGXMOWn-133" value="name" style="shape=partialRectangle;connectable=0;fillColor=none;top=0;left=0;bottom=0;right=0;align=left;spacingLeft=6;overflow=hidden;whiteSpace=wrap;html=1;" parent="HFqNzzlQbrmnvtGXMOWn-131" vertex="1">
          <mxGeometry x="30" width="150" height="30" as="geometry">
            <mxRectangle width="150" height="30" as="alternateBounds" />
          </mxGeometry>
        </mxCell>
        <mxCell id="HFqNzzlQbrmnvtGXMOWn-134" value="varchar(255)" style="shape=partialRectangle;connectable=0;fillColor=none;top=0;left=0;bottom=0;right=0;align=left;spacingLeft=6;overflow=hidden;whiteSpace=wrap;html=1;" parent="HFqNzzlQbrmnvtGXMOWn-131" vertex="1">
          <mxGeometry x="180" width="150" height="30" as="geometry">
            <mxRectangle width="150" height="30" as="alternateBounds" />
          </mxGeometry>
        </mxCell>
        <mxCell id="HFqNzzlQbrmnvtGXMOWn-135" value="NOT NULL" style="shape=partialRectangle;connectable=0;fillColor=none;top=0;left=0;bottom=0;right=0;align=left;spacingLeft=6;overflow=hidden;whiteSpace=wrap;html=1;" parent="HFqNzzlQbrmnvtGXMOWn-131" vertex="1">
          <mxGeometry x="330" width="130" height="30" as="geometry">
            <mxRectangle width="130" height="30" as="alternateBounds" />
          </mxGeometry>
        </mxCell>
        <mxCell id="HFqNzzlQbrmnvtGXMOWn-136" value="Название" style="shape=partialRectangle;connectable=0;fillColor=none;top=0;left=0;bottom=0;right=0;align=left;spacingLeft=6;overflow=hidden;whiteSpace=wrap;html=1;" parent="HFqNzzlQbrmnvtGXMOWn-131" vertex="1">
          <mxGeometry x="460" width="150" height="30" as="geometry">
            <mxRectangle width="150" height="30" as="alternateBounds" />
          </mxGeometry>
        </mxCell>
        <mxCell id="HFqNzzlQbrmnvtGXMOWn-143" value="" style="edgeStyle=entityRelationEdgeStyle;fontSize=12;html=1;endArrow=ERoneToMany;rounded=0;fillColor=#0050ef;strokeColor=#001DBC;" parent="1" source="HFqNzzlQbrmnvtGXMOWn-112" target="HFqNzzlQbrmnvtGXMOWn-125" edge="1">
          <mxGeometry width="100" height="100" relative="1" as="geometry">
            <mxPoint x="410" y="1050" as="sourcePoint" />
            <mxPoint x="510" y="950" as="targetPoint" />
          </mxGeometry>
        </mxCell>
        <mxCell id="HFqNzzlQbrmnvtGXMOWn-144" value="" style="edgeStyle=entityRelationEdgeStyle;fontSize=12;html=1;endArrow=ERoneToMany;rounded=0;fillColor=#0050ef;strokeColor=#001DBC;" parent="1" source="HFqNzzlQbrmnvtGXMOWn-76" target="HFqNzzlQbrmnvtGXMOWn-69" edge="1">
          <mxGeometry width="100" height="100" relative="1" as="geometry">
            <mxPoint x="620" y="890" as="sourcePoint" />
            <mxPoint x="620" y="1030" as="targetPoint" />
          </mxGeometry>
        </mxCell>
        <mxCell id="HFqNzzlQbrmnvtGXMOWn-145" value="" style="edgeStyle=entityRelationEdgeStyle;fontSize=12;html=1;endArrow=ERoneToMany;rounded=0;fillColor=#0050ef;strokeColor=#001DBC;" parent="1" source="w6H016eybeZFZrX_SYj5-105" target="HFqNzzlQbrmnvtGXMOWn-57" edge="1">
          <mxGeometry width="100" height="100" relative="1" as="geometry">
            <mxPoint x="1380" y="815" as="sourcePoint" />
            <mxPoint x="1380" y="675" as="targetPoint" />
          </mxGeometry>
        </mxCell>
        <mxCell id="HFqNzzlQbrmnvtGXMOWn-146" value="" style="edgeStyle=entityRelationEdgeStyle;fontSize=12;html=1;endArrow=ERoneToMany;rounded=0;fillColor=#0050ef;strokeColor=#001DBC;" parent="1" source="w6H016eybeZFZrX_SYj5-40" target="w6H016eybeZFZrX_SYj5-123" edge="1">
          <mxGeometry width="100" height="100" relative="1" as="geometry">
            <mxPoint x="1380" y="375" as="sourcePoint" />
            <mxPoint x="720" y="630" as="targetPoint" />
          </mxGeometry>
        </mxCell>
        <mxCell id="HFqNzzlQbrmnvtGXMOWn-147" value="" style="edgeStyle=entityRelationEdgeStyle;fontSize=12;html=1;endArrow=ERoneToMany;rounded=0;fillColor=#0050ef;strokeColor=#001DBC;" parent="1" source="w6H016eybeZFZrX_SYj5-6" target="w6H016eybeZFZrX_SYj5-82" edge="1">
          <mxGeometry width="100" height="100" relative="1" as="geometry">
            <mxPoint x="660" y="375" as="sourcePoint" />
            <mxPoint x="770" y="465" as="targetPoint" />
          </mxGeometry>
        </mxCell>
      </root>
    </mxGraphModel>
  </diagram>
</mxfile>
